<svg xmlns="http://www.w3.org/2000/svg" viewBox="0 0 840.42 277.19"><defs><style>.cls-1{fill:#231f20;}</style></defs><title>Asset 6</title><g id="Layer_2" data-name="Layer 2"><g id="Layer_1-2" data-name="Layer 1"><path class="cls-1" d="M107.72,4l56.89,57.43,4.8,4.85V13.85h23.32V89.54l.82.82,13.1,13.07H195.89V198.3a85.64,85.64,0,0,1-10.9,38c-14.43,25.24-40.17,38-76.49,38s-62.13-12.73-76.93-37.86A86.88,86.88,0,0,1,20,198.3V105.05l-2.78,0-10.52-.1L107.72,4m0-4L1.46,106.23l-.1.1L0,107.56l3.29.14,13.94.13V198.3s1.06,78.89,91.27,78.89,90.2-78.89,90.2-78.89V106.23h14.73L195.54,88.37V11H166.6v48.4L107.73,0Z"/><path class="cls-1" d="M171.51,108v74.43c0,44.14-23.65,69.45-64.89,69.45s-64.7-25.31-64.7-69.45V108H61.35v74c0,34,15.3,51.32,45.47,51.32,30.46,0,45.26-16.79,45.26-51.32V108Z"/><path class="cls-1" d="M368.29,76.71v34.46a62.87,62.87,0,0,0-8.15-.37c-38.17,0-61.89,23.35-61.89,66.33V275H262.68V78.56h34.09v33C309.37,88.57,333.83,76.71,368.29,76.71Z"/><path class="cls-1" d="M586.94,188.62H427.59c4.45,34.47,32.24,57.44,71.15,57.44,23,0,42.25-7.78,56.7-23.71l19.64,23c-17.79,20.75-44.84,31.87-77.45,31.87C434.26,277.19,392,235.31,392,176.76c0-58.18,41.87-100,98.57-100s97.09,40.76,97.09,101.17C587.68,180.84,587.31,185.29,586.94,188.62ZM427.59,163.05h126c-3.71-33-28.54-56.32-63-56.32C456.5,106.73,431.3,129.7,427.59,163.05Z"/><path class="cls-1" d="M840.42,176.76c0,60-41.87,100.43-99.31,100.43-28.91,0-54.1-11.12-70-33.35V275H637V0h35.57V108.21c16.31-21.12,40.77-31.5,68.56-31.5C798.55,76.71,840.42,116.73,840.42,176.76Zm-35.94,0c0-41.87-28.54-68.92-66.34-68.92-37.42,0-66,27-66,68.92s28.54,69.3,66,69.3C775.94,246.06,804.48,218.64,804.48,176.76Z"/></g></g></svg>