<?xml version="1.0" encoding="utf-8"?>
<!-- Generator: Adobe Illustrator 18.0.0, SVG Export Plug-In . SVG Version: 6.00 Build 0)  -->
<!DOCTYPE svg PUBLIC "-//W3C//DTD SVG 1.1//EN" "http://www.w3.org/Graphics/SVG/1.1/DTD/svg11.dtd">
<svg version="1.1" id="Layer_1" xmlns="http://www.w3.org/2000/svg" xmlns:xlink="http://www.w3.org/1999/xlink" x="0px" y="0px"
	 viewBox="0 0 216 108" enable-background="new 0 0 216 108" xml:space="preserve">
<path fill="#006DAE" d="M48.6,29.9h8.2c3.1,0,5.5,0.6,7.2,1.8c1.7,1.2,2.5,3.3,2.5,6.2c0,1.9-0.4,3.4-1.2,4.5
	c-0.8,1.1-2,1.7-3.6,1.9c3.8,0.7,5.7,3.3,5.7,7.7c0,3-0.8,5.3-2.3,6.8c-1.6,1.5-3.9,2.3-6.9,2.3h-9.6V29.9z M56.7,42.7
	c1.7,0,2.9-0.4,3.6-1.1c0.6-0.7,1-1.9,1-3.6c0-1.6-0.4-2.7-1.2-3.3c-0.8-0.6-2.2-0.9-4.2-0.9h-1.2v8.8H56.7z M57,57.2
	c1.8,0,3-0.4,3.7-1.2c0.7-0.8,1-2.1,1-3.9c0-1.9-0.4-3.2-1.1-4.1c-0.8-0.9-2-1.3-3.8-1.3h-2.1v10.5H57z"/>
<path fill="#006DAE" d="M76.4,29.9h6.5l6.6,31.3h-5.6L82.5,54h-5.8l-1.4,7.2h-5.7L76.4,29.9z M81.9,50.4l-2.3-13.1l-2.3,13.1H81.9z"
	/>
<path fill="#006DAE" d="M92.8,29.9h6v27.4h8.1v3.9H92.8V29.9z"/>
<path fill="#006DAE" d="M110,29.9h6v27.4h8.1v3.9H110V29.9z"/>
<path fill="#006DAE" d="M172.9,29.9h4.2l8.1,17.8V29.9h5v31.3h-4l-8.1-18.7v18.7h-5.2V29.9z"/>
<path fill="#006DAE" d="M196.8,59.2c-1.5-1.6-2.3-4-2.4-7.1l5.2-1c0.1,2,0.4,3.5,1,4.5c0.6,1,1.5,1.6,2.8,1.6c0.9,0,1.6-0.3,2.1-0.8
	c0.4-0.5,0.7-1.2,0.7-2.1c0-1.2-0.3-2.3-0.9-3.1c-0.6-0.9-1.5-1.8-2.8-2.8l-4.2-3.4c-1.3-1-2.2-2.1-2.9-3.3c-0.6-1.2-1-2.6-1-4.2
	c0-2.4,0.8-4.3,2.3-5.7c1.5-1.4,3.6-2,6.3-2c2.9,0,4.9,0.8,6.2,2.3c1.2,1.5,2,3.6,2.1,6.2l-5.2,0.8c-0.1-1.7-0.3-3-0.8-3.8
	c-0.4-0.9-1.2-1.3-2.5-1.3c-0.9,0-1.6,0.3-2,0.8s-0.7,1.3-0.7,2.1c0,1,0.2,1.8,0.6,2.5c0.4,0.7,1.1,1.4,2.1,2.2l4.1,3.4
	c1.6,1.3,2.8,2.6,3.6,4.1c0.9,1.4,1.3,3.1,1.3,5c0,1.5-0.3,2.8-1,4c-0.7,1.2-1.7,2.1-2.9,2.7c-1.3,0.7-2.7,1-4.3,1
	C200.6,61.6,198.3,60.8,196.8,59.2z"/>
<g>
	<path fill="#F05123" d="M144.9,68.2c-1.1,0.7-2.2,1.2-3.4,1.4c-7.1,1-14.3-7.9-15.8-18.1c-1.5-10.2,3.3-17.8,10.4-18.8
		c2.7-0.4,5.4,0.2,7.8,1.7c3.8,2.4,6.7,7,7.6,13.3C152.6,56.1,149.9,64.8,144.9,68.2L144.9,68.2z M144.9,68.2"/>
	<path fill="#FFC944" d="M144.1,45.9c1.7-10.2,8.6-15.9,15.7-14.6c7.1,1.2,11.7,8.9,9.9,19.1c-1.7,10.2-9.2,18.9-16.3,17.7
		C146.5,66.8,142.4,56.1,144.1,45.9L144.1,45.9z"/>
	<path fill="#444D55" d="M169,37c-2-3.7-5.2-6-9-6.7c-3-0.5-6,0.1-8.6,1.7c-1.4,0.8-2.6,2-3.8,3.3c-3-2.7-6.7-4-10.5-3.5
		c-6.4,0.9-11,6.6-11.5,14.5c0,0.5,0.3,1,0.9,1.1c0,0,0.1,0,0.1,0c0.6,0,1.1-0.4,1.1-1c0.5-6.9,4.3-11.8,9.8-12.6
		c3.2-0.5,6.4,0.6,9,3.1c-0.5,0.8-1,1.6-1.4,2.5c-0.2,0.5,0,1.1,0.5,1.4c0.5,0.2,1.1,0,1.4-0.5c0.5-1,1-2,1.7-2.8c0,0,0,0,0-0.1
		c2.8-3.9,6.9-5.8,11-5.1c6.8,1.2,10.7,8.7,9.1,17.9c-0.7,4-2.3,7.9-4.6,11c-0.3,0.5-0.2,1.1,0.2,1.4c0.1,0.1,0.3,0.2,0.4,0.2
		c0.4,0.1,0.8-0.1,1-0.4c2.4-3.4,4.2-7.6,4.9-11.9C171.7,45.5,171.1,40.7,169,37L169,37z"/>
	<path fill="#444D55" d="M145.3,90c0.4-0.5,0.8-0.9,1.2-1.4c0.2-0.2,0.4-0.4,0.6-0.6c0.3-0.4,0.7-0.8,1-1.2c0.9-1.3,1.6-3.3,0.7-5
		c-0.7-1.3-2-1.9-3.1-2.5c-0.5-0.2-0.9-0.4-1.3-0.7c-0.3-0.2-0.6-0.4-0.7-0.7c-0.7-1-0.1-2.6,0.5-3.9l1.2-0.2
		c0.7-0.1,1.3-0.6,1.6-1.2c0.3-0.7,0.3-1.4-0.1-2l-0.7-1.1c1-0.6,2-1.4,2.9-2.5c0.3,0.2,0.6,0.4,0.9,0.6l-0.7,1.2
		c-0.4,0.6-0.4,1.4-0.1,2c0.3,0.6,0.9,1.1,1.6,1.2c-0.8,1.6-1.4,3.4-0.4,5c0.3,0.5,0.7,0.9,1.2,1.3c0.5,0.3,0.9,0.6,1.4,0.9
		c0.9,0.6,1.7,1,2,1.8c0.4,0.9-0.2,2.1-0.8,2.8c-0.4,0.5-1,1-1.5,1.4c-0.5,0.4-1,0.9-1.5,1.4c-0.5,0.5-0.9,1-1.2,1.6
		c-0.7,1.2-1.2,2.5-1.3,3.9c0.7-0.1,1.4-0.1,2.1-0.1c0.2-1.2,0.7-2.4,1.5-3.4c0.1-0.2,0.3-0.4,0.5-0.5c0.4-0.4,0.8-0.8,1.3-1.2
		c0.6-0.5,1.2-1,1.7-1.7c1-1.2,1.9-3.1,1.2-4.9c-0.5-1.4-1.8-2.1-2.9-2.8c-0.4-0.3-0.8-0.5-1.2-0.8c-0.3-0.2-0.5-0.5-0.7-0.7
		c-0.6-1,0.1-2.4,0.8-3.6l1.9,0.3c0.7,0.1,1.4-0.1,1.9-0.6c0.3-0.3,0.5-0.7,0.6-1.2c0-0.3,0-0.5,0-0.8l-0.3-1.3
		c0.3-0.1,0.6-0.2,0.9-0.3c1.3-0.4,2.7-1.1,3.9-2.1c-0.1-0.2-0.1-0.4-0.2-0.6c-0.2-0.5-0.3-1-0.4-1.5c-1.5,1.3-3,2.1-4.6,2.5
		c-0.3,0.1-0.7,0.1-1,0.2c-0.2,0-0.4,0-0.6,0c-0.2,0-0.4,0-0.7,0c-0.7,0-1.3-0.2-2-0.4l0,0c-0.2-0.1-0.4-0.1-0.5-0.2
		c-0.8-0.4-1.5-0.9-2.2-1.5c0,0-0.1-0.1-0.1-0.1c-0.5-0.5-1-1.1-1.5-1.8c-2.8-4.1-4-10.7-2.9-16.9c0.1-0.6,0.2-1.2,0.4-1.7
		c0.1-0.5-0.2-1.1-0.7-1.2c0,0,0,0,0,0c-0.6-0.1-1.1,0.2-1.3,0.8c-0.2,0.6-0.3,1.2-0.4,1.9c-0.7,3.9-0.5,7.9,0.4,11.7
		c0.7,3,1.9,5.6,3.5,7.6c0.2,0.2,0.4,0.5,0.6,0.7c-0.7,0.8-1.4,1.4-2.1,1.9c-0.4,0.3-0.9,0.5-1.3,0.7c0,0,0,0,0,0
		c-0.5,0.2-1.1,0.4-1.6,0.4c-3,0.4-6.2-1.2-9.1-4.5c-2.8-3.3-4.9-8-5.5-12.8c0-0.3-0.1-0.6-0.1-0.9c-0.1-0.6-0.6-1-1.1-0.9
		c-0.6,0.1-1,0.6-0.9,1.1c0,0.4,0.1,0.7,0.1,1c0.7,5.1,2.9,10.2,6,13.8c2.2,2.7,4.8,4.4,7.3,5l-0.3,1.4c-0.2,0.7,0,1.4,0.5,1.9
		c0.3,0.4,0.8,0.6,1.2,0.7c0.2,0,0.5,0,0.7,0l0.4-0.1c-0.6,1.6-0.8,3.3,0.2,4.8c0.3,0.5,0.8,0.8,1.3,1.2c0.5,0.3,1,0.5,1.5,0.8
		c1,0.5,1.8,0.8,2.2,1.6c0.5,0.9,0,2.1-0.5,2.8c-0.4,0.6-0.9,1.1-1.4,1.6c-0.2,0.2-0.4,0.4-0.6,0.6c-0.3,0.3-0.5,0.6-0.8,0.9
		c-1.2,1.5-1.8,3.4-1.9,5.3c0.7-0.3,1.4-0.6,2.2-0.8C144.2,92.1,144.6,91,145.3,90z M151.1,70l0.8-1.3l0,0c0.1,0,0.2,0.1,0.3,0.1
		c0.8,0.2,1.5,0.4,2.3,0.4c0.1,0,0.2,0,0.3,0l0.4,1.5c0,0,0,0,0,0.1c0,0-0.1,0-0.1,0l-4-0.7C151.1,70.1,151.1,70.1,151.1,70
		C151,70.1,151.1,70,151.1,70z M141,72.5C141,72.5,141,72.5,141,72.5c-0.1-0.1-0.1-0.1-0.1-0.1l0.3-1.5c0.5,0,1,0,1.6-0.1
		c0.5-0.1,1-0.2,1.5-0.3l0.8,1.3c0,0,0,0,0,0.1c0,0-0.1,0-0.1,0L141,72.5z"/>
</g>
<path fill="#FFD100" d="M32.4,35.8c-2.2-2.6-5.1-4-8.9-4.1c-0.1,0-0.2,0-0.4,0c-3.9,0-7,1.4-9.3,4.1c-2.2,2.7-3.4,6.6-3.4,11.7
	c0,5.1,1.1,9,3.4,11.7c2.3,2.7,5.4,4.1,9.2,4.1c0.1,0,0.3,0,0.4,0c3.7-0.1,6.6-1.4,8.8-4c2.3-2.7,3.4-6.6,3.4-11.7
	C35.8,42.5,34.7,38.6,32.4,35.8z"/>
<path fill="#006DAE" d="M41.3,71.7c-0.4,0.2-1.1,0.4-2.1,0.6c-1,0.2-1.8,0.3-2.5,0.3c-2.3,0-3.9-0.5-4.7-1.6
	c-0.9-1.1-1.3-2.6-1.4-4.6c3.3-1.3,5.9-3.6,7.8-6.8c1.9-3.2,2.9-7.2,2.9-12c0-3.2-0.4-6.1-1.3-8.6c-0.8-2.5-2.1-4.6-3.6-6.4
	c-1.5-1.7-3.4-3-5.6-3.9c-2.1-0.9-4.5-1.3-7.1-1.4v4.5c3.7,0.1,6.7,1.4,8.9,4.1c2.3,2.7,3.4,6.6,3.4,11.7c0,5.1-1.1,9-3.4,11.7
	c-2.2,2.6-5.2,3.9-8.8,4v4.5c0.2,0,0.5,0,0.7,0c0.4,0,0.8-0.1,1.2-0.1c0.2,3.1,1.2,5.5,3,7.1c1.8,1.7,4.3,2.5,7.3,2.5
	c1.1,0,2.1-0.1,3.1-0.2c1-0.1,2-0.3,3.1-0.6v-4.7H41.3z"/>
<path fill="#F05123" d="M23.2,63.2c-3.9,0-6.9-1.4-9.2-4.1c-2.3-2.7-3.4-6.6-3.4-11.7c0-5,1.1-8.9,3.4-11.7c2.2-2.7,5.3-4.1,9.3-4.1
	c0.1,0,0.3,0,0.4,0v-4.5c-0.1,0-0.3,0-0.4,0c-2.7,0-5.1,0.5-7.4,1.4c-2.3,0.9-4.2,2.2-5.7,3.9c-1.6,1.8-2.8,3.9-3.6,6.4
	c-0.8,2.5-1.3,5.3-1.3,8.5c0,3.2,0.4,6.1,1.3,8.6c0.8,2.5,2,4.6,3.6,6.3c1.6,1.7,3.5,3,5.7,3.9c2.2,0.9,4.7,1.4,7.4,1.4
	c0.1,0,0.3,0,0.4,0v-4.5C23.4,63.2,23.3,63.2,23.2,63.2z"/>
</svg>
