<?xml version="1.0" encoding="utf-8"?><svg xmlns="http://www.w3.org/2000/svg" xmlns:xlink="http://www.w3.org/1999/xlink"><symbol id="add-payment" viewBox="0 0 48 48" xmlns="http://www.w3.org/2000/svg"><style>.st0{fill:#010101}.st1{fill:#060707}</style><g id="aaXMLID_30_"><path id="aaXMLID_34_" d="M45 15c0-4.4-3.6-8-8-8-3.7 0-6.8 2.6-7.7 6H8c-2.8 0-5 2.2-5 5v18c0 2.8 2.2 5 5 5h28c2.8 0 5-2.2 5-5V21.9c2.4-1.4 4-3.9 4-6.9zm-6 18h-8.1c-1.6 0-2.9-1.3-2.9-3s1.3-3 2.9-3H39v6zm0-8h-8.1c-2.7 0-4.9 2.2-4.9 5s2.2 5 4.9 5H39v1c0 1.7-1.3 3-3 3H8c-1.7 0-3-1.3-3-3V18c0-1.7 1.3-3 3-3h21c0 4.4 3.6 8 8 8 .7 0 1.4-.1 2-.3V25zm-2-4c-3.3 0-6-2.7-6-6s2.7-6 6-6 6 2.7 6 6-2.7 6-6 6z"/><path id="aaXMLID_352_" d="M40 14h-2v-2c0-.6-.4-1-1-1s-1 .4-1 1v2h-2c-.6 0-1 .4-1 1s.4 1 1 1h2v2c0 .6.4 1 1 1s1-.4 1-1v-2h2c.6 0 1-.4 1-1s-.4-1-1-1z"/><ellipse id="aaXMLID_501_" cx="31" cy="30" rx="1" ry="1"/></g></symbol><symbol viewBox="0 0 512 512" id="address-card" xmlns="http://www.w3.org/2000/svg"><path d="M464 64H48C21.49 64 0 85.49 0 112v288c0 26.51 21.49 48 48 48h416c26.51 0 48-21.49 48-48V112c0-26.51-21.49-48-48-48zm-6 336H54a6 6 0 0 1-6-6V118a6 6 0 0 1 6-6h404a6 6 0 0 1 6 6v276a6 6 0 0 1-6 6zm-54-176H300c-6.627 0-12-5.373-12-12v-16c0-6.627 5.373-12 12-12h104c6.627 0 12 5.373 12 12v16c0 6.627-5.373 12-12 12zm0 72H300c-6.627 0-12-5.373-12-12v-16c0-6.627 5.373-12 12-12h104c6.627 0 12 5.373 12 12v16c0 6.627-5.373 12-12 12zM176 160c33.137 0 60 26.863 60 60s-26.863 60-60 60-60-26.863-60-60 26.863-60 60-60zm68.731 125.183l-26.742-6.686c-28.096 20.209-62.152 15.699-83.978 0l-26.742 6.686C91.243 289.189 80 303.589 80 320.108V334c0 9.941 8.059 18 18 18h156c9.941 0 18-8.059 18-18v-13.892c0-16.519-11.243-30.919-27.269-34.925z"/></symbol><symbol viewBox="0 0 512 512" class="acsvg-inline--fa acfa-arrow-circle-right acfa-w-16 acfa-3x" id="arrow-circle-right" xmlns="http://www.w3.org/2000/svg"><path d="M8 256c0 137 111 248 248 248s248-111 248-248S393 8 256 8 8 119 8 256zM256 40c118.7 0 216 96.1 216 216 0 118.7-96.1 216-216 216-118.7 0-216-96.1-216-216 0-118.7 96.1-216 216-216zm12.5 92.5l115.1 115c4.7 4.7 4.7 12.3 0 17l-115.1 115c-4.7 4.7-12.3 4.7-17 0l-6.9-6.9c-4.7-4.7-4.7-12.5.2-17.1l85.6-82.5H140c-6.6 0-12-5.4-12-12v-10c0-6.6 5.4-12 12-12h190.3l-85.6-82.5c-4.8-4.7-4.9-12.4-.2-17.1l6.9-6.9c4.8-4.7 12.4-4.7 17.1 0z"/></symbol><symbol viewBox="0 0 47.001 47.001" id="bank" xmlns="http://www.w3.org/2000/svg"><path d="M44.845 42.718H2.136a2.136 2.136 0 1 0 0 4.272h42.708a2.135 2.135 0 1 0 .001-4.272zm-40.04-5.553a2.136 2.136 0 1 0 0 4.273h37.37a2.136 2.136 0 0 0 0-4.273h-.533v-19.22h.533a1.066 1.066 0 1 0 0-2.134H4.805a1.067 1.067 0 1 0 0 2.134h.534v19.219h-.534zm32.565-19.22v19.219h-6.406V17.945h6.406zm-10.678 0v19.219h-6.406V17.945h6.406zm-17.083 0h6.406v19.219H9.609V17.945zm-7.473-4.054h42.729a2.135 2.135 0 0 0 .693-4.157L24.368.199a2.14 2.14 0 0 0-1.752 0L1.26 9.808a2.135 2.135 0 0 0 .876 4.083z"/></symbol><symbol viewBox="0 0 448 512" id="bars" xmlns="http://www.w3.org/2000/svg"><path d="M16 132h416c8.837 0 16-7.163 16-16V76c0-8.837-7.163-16-16-16H16C7.163 60 0 67.163 0 76v40c0 8.837 7.163 16 16 16zm0 160h416c8.837 0 16-7.163 16-16v-40c0-8.837-7.163-16-16-16H16c-8.837 0-16 7.163-16 16v40c0 8.837 7.163 16 16 16zm0 160h416c8.837 0 16-7.163 16-16v-40c0-8.837-7.163-16-16-16H16c-8.837 0-16 7.163-16 16v40c0 8.837 7.163 16 16 16z"/></symbol><symbol viewBox="0 0 68 65" id="bb" xmlns="http://www.w3.org/2000/svg"><path d="M42 27V7c0-3.7-3.3-7-7-7s-7 3.3-7 7v21l12 15-7 15.7C47.5 72.6 68 61.5 68 45c0-13.3-13.4-21.8-26-18zm6 25c-3.9 0-7-3.1-7-7s3.1-7 7-7 7 3.1 7 7-3.1 7-7 7z"/><path d="M14 27V7c0-3.7-3.3-7-7-7S0 3.3 0 7v41c0 8.2 9.2 17 20 17s20-9.2 20-20c0-13.3-13.4-21.8-26-18zm6 25c-3.9 0-7-3.1-7-7s3.1-7 7-7 7 3.1 7 7-3.1 7-7 7z"/></symbol><symbol viewBox="0 0 512 512" id="camera" xmlns="http://www.w3.org/2000/svg"><path d="M512 144v288c0 26.5-21.5 48-48 48H48c-26.5 0-48-21.5-48-48V144c0-26.5 21.5-48 48-48h88l12.3-32.9c7-18.7 24.9-31.1 44.9-31.1h125.5c20 0 37.9 12.4 44.9 31.1L376 96h88c26.5 0 48 21.5 48 48zM376 288c0-66.2-53.8-120-120-120s-120 53.8-120 120 53.8 120 120 120 120-53.8 120-120zm-32 0c0 48.5-39.5 88-88 88s-88-39.5-88-88 39.5-88 88-88 88 39.5 88 88z"/></symbol><symbol viewBox="0 0 611.996 611.996" id="cards" xmlns="http://www.w3.org/2000/svg"><path d="M588.63 113.193L213.812 33.871c-15.858-3.355-31.576 6.876-34.931 22.734l-7.121 45.762 432.477 91.519 7.121-45.762c3.355-15.852-6.87-31.575-22.728-34.931zm-157.621 90.398c-4.378-15.766-20.854-25.085-36.615-20.714L323.24 202.63l-167.742-35.5-18.448 87.165-115.264 31.992c-15.76 4.372-25.079 20.848-20.708 36.609l64.958 234.078c4.378 15.76 20.855 25.085 36.615 20.708l372.608-103.403c15.76-4.378 25.079-20.848 20.708-36.615l-11.15-40.184 41.789 8.835c15.858 3.361 31.576-6.87 34.931-22.728l26.439-124.937-150.526-31.853-6.441-23.206zm43.031 118.968l9.215-43.552c1.384-6.521 7.85-10.727 14.37-9.35l43.552 9.221c6.527 1.384 10.733 7.843 9.356 14.37l-9.215 43.552c-1.384 6.521-7.849 10.733-14.37 9.35l-43.552-9.215c-6.533-1.389-10.74-7.855-9.356-14.376zM28.27 309.646l103.115-28.606 243.299-67.517 26.181-7.274c.478-.129.955-.19 1.421-.19 2.1 0 4.611 1.378 5.345 4.017l3.074 11.07 9.631 34.704L37.148 362.186l-12.705-45.768c-.796-2.872.956-5.976 3.827-6.772zm444.331 134.495c.49 1.776-.024 3.245-.545 4.164-.514.918-1.506 2.119-3.282 2.608L96.173 554.316a5.42 5.42 0 0 1-1.421.196c-2.1 0-4.611-1.384-5.345-4.023L51.519 413.955l383.188-106.342 23.371 84.208 14.523 52.32z"/><path d="M156.379 453.484c-1.788-6.429-8.499-10.225-14.928-8.443l-43.515 12.08c-6.423 1.782-10.225 8.499-8.437 14.928l12.074 43.509c1.788 6.429 8.499 10.225 14.928 8.437l43.515-12.074c6.429-1.782 10.225-8.499 8.443-14.928l-12.08-43.509z"/></symbol><symbol viewBox="0 0 576 512" class="aisvg-inline--fa aifa-cc-amex aifa-w-18 aifa-3x" id="cc-amex" xmlns="http://www.w3.org/2000/svg"><path d="M576 255.4c-37.9-.2-44.2-.9-54.5 5v-5c-45.3 0-53.5-1.7-64.9 5.2v-5.2h-78.2v5.1c-11.4-6.5-21.4-5.1-75.7-5.1v5.6c-6.3-3.7-14.5-5.6-24.3-5.6h-58c-3.5 3.8-12.5 13.7-15.7 17.2-12.7-14.1-10.5-11.6-15.5-17.2h-83.1v92.3h82c3.3-3.5 12.9-13.9 16.1-17.4 12.7 14.3 10.3 11.7 15.4 17.4h48.9c0-14.7.1-8.3.1-23 11.5.2 24.3-.2 34.3-6.2 0 13.9-.1 17.1-.1 29.2h39.6c0-18.5.1-7.4.1-25.3 6.2 0 7.7 0 9.4.1.1 1.3 0 0 0 25.2 152.8 0 145.9 1.1 156.7-4.5v4.5c34.8 0 54.8 2.2 67.5-6.1V432c0 26.5-21.5 48-48 48H48c-26.5 0-48-21.5-48-48V228.3h26.6c4.2-10.1 2.2-5.3 6.4-15.3h19.2c4.2 10 2.2 5.2 6.4 15.3h52.9v-11.4c2.2 5 1.1 2.5 5.1 11.4h29.5c2.4-5.5 2.6-5.8 5.1-11.4v11.4h135.5v-25.1c6.4 0 8-.1 9.8.2 0 0-.2 10.9.1 24.8h66.5v-8.9c7.4 5.9 17.4 8.9 29.7 8.9h26.8c4.2-10.1 2.2-5.3 6.4-15.3h19c6.5 15 .2.5 6.6 15.3h52.8v-21.9c11.8 19.7 7.8 12.9 13.2 21.9h41.6v-92h-39.9v18.4c-12.2-20.2-6.3-10.4-11.2-18.4h-43.3v20.6c-6.2-14.6-4.6-10.8-8.8-20.6h-32.4c-.4 0-2.3.2-2.3-.3h-27.6c-12.8 0-23.1 3.2-30.7 9.3v-9.3h-39.9v5.3c-10.8-6.1-20.7-5.1-64.4-5.3-.1 0-11.6-.1-11.6 0h-103c-2.5 6.1-6.8 16.4-12.6 30-2.8-6-11-23.8-13.9-30h-46V157c-7.4-17.4-4.7-11-9-21.1H22.9c-3.4 7.9-13.7 32-23.1 53.9V80c0-26.5 21.5-48 48-48h480c26.5 0 48 21.5 48 48v175.4zm-186.6-80.6c-.3.2-1.4 2.2-1.4 7.6 0 6 .9 7.7 1.1 7.9.2.1 1.1.5 3.4.5l7.3-16.9c-1.1 0-2.1-.1-3.1-.1-5.6 0-7 .7-7.3 1zm-19.9 130.9c9.2 3.3 11 9.5 11 18.4l-.1 13.8h-16.6l.1-11.5c0-11.8-3.8-13.8-14.8-13.8h-17.6l-.1 25.3h-16.6l.1-69.3h39.4c13 0 27.1 2.3 27.1 18.7-.1 7.6-4.2 15.3-11.9 18.4zm-6.3-15.4c0-6.4-5.6-7.4-10.7-7.4h-21v15.6h20.7c5.6 0 11-1.3 11-8.2zm181.7-7.1H575v-14.6h-32.9c-12.8 0-23.8 6.6-23.8 20.7 0 33 42.7 12.8 42.7 27.4 0 5.1-4.3 6.4-8.4 6.4h-32l-.1 14.8h32c8.4 0 17.6-1.8 22.5-8.9v-25.8c-10.5-13.8-39.3-1.3-39.3-13.5 0-5.8 4.6-6.5 9.2-6.5zm-99.2-.3v-14.3h-55.2l-.1 69.3h55.2l.1-14.3-38.6-.3v-13.8H445v-14.1h-37.8v-12.5h38.5zm42.2 40.1h-32.2l-.1 14.8h32.2c14.8 0 26.2-5.6 26.2-22 0-33.2-42.9-11.2-42.9-26.3 0-5.6 4.9-6.4 9.2-6.4h30.4v-14.6h-33.2c-12.8 0-23.5 6.6-23.5 20.7 0 33 42.7 12.5 42.7 27.4-.1 5.4-4.7 6.4-8.8 6.4zm-78.1-158.7c-17.4-.3-33.2-4.1-33.2 19.7 0 11.8 2.8 19.9 16.1 19.9h7.4l23.5-54.5h24.8l27.9 65.4v-65.4h25.3l29.1 48.1v-48.1h16.9v69H524l-31.2-51.9v51.9h-33.7l-6.6-15.3h-34.3l-6.4 15.3h-19.2c-22.8 0-33-11.8-33-34 0-23.3 10.5-35.3 34-35.3h16.1v15.2zm14.3 24.5h22.8l-11.2-27.6-11.6 27.6zm-72.6-39.6h-16.9v69.3h16.9v-69.3zm-38.1 37.3c9.5 3.3 11 9.2 11 18.4v13.5h-16.6c-.3-14.8 3.6-25.1-14.8-25.1h-18v25.1h-16.4v-69.3l39.1.3c13.3 0 27.4 2 27.4 18.4.1 8-4.3 15.7-11.7 18.7zm-6.7-15.3c0-6.4-5.6-7.4-10.7-7.4h-21v15.3h20.7c5.7 0 11-1.3 11-7.9zm-59.5-7.4v-14.6h-55.5v69.3h55.5v-14.3h-38.9v-13.8h37.8v-14.1h-37.8v-12.5h38.9zm-84.6 54.7v-54.2l-24 54.2H124l-24-54.2v54.2H66.2l-6.4-15.3H25.3l-6.4 15.3H1l29.7-69.3h24.5l28.1 65.7v-65.7h27.1l21.7 47 19.7-47h27.6v69.3h-16.8zM53.9 188.8l-11.5-27.6-11.2 27.6h22.7zm253 102.5c0 27.9-30.4 23.3-49.3 23.3l-.1 23.3h-32.2l-20.4-23-21.3 23h-65.4l.1-69.3h66.5l20.5 22.8 21-22.8H279c15.6 0 27.9 5.4 27.9 22.7zm-112.7 11.8l-17.9-20.2h-41.7v12.5h36.3v14.1h-36.3v13.8h40.6l19-20.2zM241 276l-25.3 27.4 25.3 28.1V276zm48.3 15.3c0-6.1-4.6-8.4-10.2-8.4h-21.5v17.6h21.2c5.9 0 10.5-2.8 10.5-9.2z"/></symbol><symbol viewBox="0 0 576 512" class="ajsvg-inline--fa ajfa-cc-discover ajfa-w-18 ajfa-3x" id="cc-discover" xmlns="http://www.w3.org/2000/svg"><path d="M83 212.1c0 7.9-3.2 15.5-8.9 20.7-4.9 4.4-11.6 6.4-21.9 6.4H48V185h4.2c10.3 0 16.7 1.7 21.9 6.6 5.7 5 8.9 12.6 8.9 20.5zM504.8 184h-4.9v24.9h4.7c10.3 0 15.8-4.4 15.8-12.8 0-7.9-5.5-12.1-15.6-12.1zM576 80v352c0 26.5-21.5 48-48 48H48c-26.5 0-48-21.5-48-48V80c0-26.5 21.5-48 48-48h480c26.5 0 48 21.5 48 48zM428 253h45.3v-13.8H444V217h28.3v-13.8H444V185h29.3v-14H428v82zm-86.2-82l35 84.2h8.6l35.5-84.2h-17.5l-22.2 55.2-21.9-55.2h-17.5zm-83 41.6c0 24.6 19.9 44.6 44.6 44.6 24.6 0 44.6-19.9 44.6-44.6 0-24.6-19.9-44.6-44.6-44.6-24.6 0-44.6 19.9-44.6 44.6zm-68-.5c0 32.5 33.6 52.5 63.3 38.2v-19c-19.3 19.3-46.8 5.8-46.8-19.2 0-23.7 26.7-39.1 46.8-19v-19c-30.2-15-63.3 6.8-63.3 38zm-33.9 28.3c-7.6 0-13.8-3.7-17.5-10.8l-10.3 9.9c17.8 26.1 56.6 18.2 56.6-11.3 0-13.1-5.4-19-23.6-25.6-9.6-3.4-12.3-5.9-12.3-10.3 0-8.7 14.5-14.1 24.9-2.5l8.4-10.8c-19.1-17.1-49.7-8.9-49.7 14.3 0 11.3 5.2 17.2 20.2 22.7 25.7 9.1 14.7 24.4 3.3 24.4zm-57.4-28.3c0-24.1-18-41.1-44.1-41.1H32v82h23.4c30.9 0 44.1-22.4 44.1-40.9zm23.4-41.1h-16v82h16v-82zM544 288c-33.3 20.8-226.4 124.4-416 160h401c8.2 0 15-6.8 15-15V288zm0-35l-25.9-34.5c12.1-2.5 18.7-10.6 18.7-23.2 0-28.5-30.3-24.4-52.9-24.4v82h16v-32.8h2.2l22.2 32.8H544z"/></symbol><symbol viewBox="0 0 576 512" class="aksvg-inline--fa akfa-cc-mastercard akfa-w-18 akfa-3x" id="cc-mastercard" xmlns="http://www.w3.org/2000/svg"><path d="M482.9 410.3c0 6.8-4.6 11.7-11.2 11.7-6.8 0-11.2-5.2-11.2-11.7 0-6.5 4.4-11.7 11.2-11.7 6.6 0 11.2 5.2 11.2 11.7zm-310.8-11.7c-7.1 0-11.2 5.2-11.2 11.7 0 6.5 4.1 11.7 11.2 11.7 6.5 0 10.9-4.9 10.9-11.7-.1-6.5-4.4-11.7-10.9-11.7zm117.5-.3c-5.4 0-8.7 3.5-9.5 8.7h19.1c-.9-5.7-4.4-8.7-9.6-8.7zm107.8.3c-6.8 0-10.9 5.2-10.9 11.7 0 6.5 4.1 11.7 10.9 11.7 6.8 0 11.2-4.9 11.2-11.7 0-6.5-4.4-11.7-11.2-11.7zm105.9 26.1c0 .3.3.5.3 1.1 0 .3-.3.5-.3 1.1-.3.3-.3.5-.5.8-.3.3-.5.5-1.1.5-.3.3-.5.3-1.1.3-.3 0-.5 0-1.1-.3-.3 0-.5-.3-.8-.5-.3-.3-.5-.5-.5-.8-.3-.5-.3-.8-.3-1.1 0-.5 0-.8.3-1.1 0-.5.3-.8.5-1.1.3-.3.5-.3.8-.5.5-.3.8-.3 1.1-.3.5 0 .8 0 1.1.3.5.3.8.3 1.1.5s.2.6.5 1.1zm-2.2 1.4c.5 0 .5-.3.8-.3.3-.3.3-.5.3-.8 0-.3 0-.5-.3-.8-.3 0-.5-.3-1.1-.3h-1.6v3.5h.8V426h.3l1.1 1.4h.8l-1.1-1.3zM576 81v352c0 26.5-21.5 48-48 48H48c-26.5 0-48-21.5-48-48V81c0-26.5 21.5-48 48-48h480c26.5 0 48 21.5 48 48zM64 220.6c0 76.5 62.1 138.5 138.5 138.5 27.2 0 53.9-8.2 76.5-23.1-72.9-59.3-72.4-171.2 0-230.5-22.6-15-49.3-23.1-76.5-23.1-76.4-.1-138.5 62-138.5 138.2zm224 108.8c70.5-55 70.2-162.2 0-217.5-70.2 55.3-70.5 162.6 0 217.5zm-142.3 76.3c0-8.7-5.7-14.4-14.7-14.7-4.6 0-9.5 1.4-12.8 6.5-2.4-4.1-6.5-6.5-12.2-6.5-3.8 0-7.6 1.4-10.6 5.4V392h-8.2v36.7h8.2c0-18.9-2.5-30.2 9-30.2 10.2 0 8.2 10.2 8.2 30.2h7.9c0-18.3-2.5-30.2 9-30.2 10.2 0 8.2 10 8.2 30.2h8.2v-23zm44.9-13.7h-7.9v4.4c-2.7-3.3-6.5-5.4-11.7-5.4-10.3 0-18.2 8.2-18.2 19.3 0 11.2 7.9 19.3 18.2 19.3 5.2 0 9-1.9 11.7-5.4v4.6h7.9V392zm40.5 25.6c0-15-22.9-8.2-22.9-15.2 0-5.7 11.9-4.8 18.5-1.1l3.3-6.5c-9.4-6.1-30.2-6-30.2 8.2 0 14.3 22.9 8.3 22.9 15 0 6.3-13.5 5.8-20.7.8l-3.5 6.3c11.2 7.6 32.6 6 32.6-7.5zm35.4 9.3l-2.2-6.8c-3.8 2.1-12.2 4.4-12.2-4.1v-16.6h13.1V392h-13.1v-11.2h-8.2V392h-7.6v7.3h7.6V416c0 17.6 17.3 14.4 22.6 10.9zm13.3-13.4h27.5c0-16.2-7.4-22.6-17.4-22.6-10.6 0-18.2 7.9-18.2 19.3 0 20.5 22.6 23.9 33.8 14.2l-3.8-6c-7.8 6.4-19.6 5.8-21.9-4.9zm59.1-21.5c-4.6-2-11.6-1.8-15.2 4.4V392h-8.2v36.7h8.2V408c0-11.6 9.5-10.1 12.8-8.4l2.4-7.6zm10.6 18.3c0-11.4 11.6-15.1 20.7-8.4l3.8-6.5c-11.6-9.1-32.7-4.1-32.7 15 0 19.8 22.4 23.8 32.7 15l-3.8-6.5c-9.2 6.5-20.7 2.6-20.7-8.6zm66.7-18.3H408v4.4c-8.3-11-29.9-4.8-29.9 13.9 0 19.2 22.4 24.7 29.9 13.9v4.6h8.2V392zm33.7 0c-2.4-1.2-11-2.9-15.2 4.4V392h-7.9v36.7h7.9V408c0-11 9-10.3 12.8-8.4l2.4-7.6zm40.3-14.9h-7.9v19.3c-8.2-10.9-29.9-5.1-29.9 13.9 0 19.4 22.5 24.6 29.9 13.9v4.6h7.9v-51.7zm7.6-75.1v4.6h.8V302h1.9v-.8h-4.6v.8h1.9zm6.6 123.8c0-.5 0-1.1-.3-1.6-.3-.3-.5-.8-.8-1.1-.3-.3-.8-.5-1.1-.8-.5 0-1.1-.3-1.6-.3-.3 0-.8.3-1.4.3-.5.3-.8.5-1.1.8-.5.3-.8.8-.8 1.1-.3.5-.3 1.1-.3 1.6 0 .3 0 .8.3 1.4 0 .3.3.8.8 1.1.3.3.5.5 1.1.8.5.3 1.1.3 1.4.3.5 0 1.1 0 1.6-.3.3-.3.8-.5 1.1-.8.3-.3.5-.8.8-1.1.3-.6.3-1.1.3-1.4zm3.2-124.7h-1.4l-1.6 3.5-1.6-3.5h-1.4v5.4h.8v-4.1l1.6 3.5h1.1l1.4-3.5v4.1h1.1v-5.4zm4.4-80.5c0-76.2-62.1-138.3-138.5-138.3-27.2 0-53.9 8.2-76.5 23.1 72.1 59.3 73.2 171.5 0 230.5 22.6 15 49.5 23.1 76.5 23.1 76.4.1 138.5-61.9 138.5-138.4z"/></symbol><symbol viewBox="0 0 576 512" class="alsvg-inline--fa alfa-cc-paypal alfa-w-18 alfa-3x" id="cc-paypal" xmlns="http://www.w3.org/2000/svg"><path d="M186.3 258.2c0 12.2-9.7 21.5-22 21.5-9.2 0-16-5.2-16-15 0-12.2 9.5-22 21.7-22 9.3 0 16.3 5.7 16.3 15.5zM80.5 209.7h-4.7c-1.5 0-3 1-3.2 2.7l-4.3 26.7 8.2-.3c11 0 19.5-1.5 21.5-14.2 2.3-13.4-6.2-14.9-17.5-14.9zm284 0H360c-1.8 0-3 1-3.2 2.7l-4.2 26.7 8-.3c13 0 22-3 22-18-.1-10.6-9.6-11.1-18.1-11.1zM576 80v352c0 26.5-21.5 48-48 48H48c-26.5 0-48-21.5-48-48V80c0-26.5 21.5-48 48-48h480c26.5 0 48 21.5 48 48zM128.3 215.4c0-21-16.2-28-34.7-28h-40c-2.5 0-5 2-5.2 4.7L32 294.2c-.3 2 1.2 4 3.2 4h19c2.7 0 5.2-2.9 5.5-5.7l4.5-26.6c1-7.2 13.2-4.7 18-4.7 28.6 0 46.1-17 46.1-45.8zm84.2 8.8h-19c-3.8 0-4 5.5-4.2 8.2-5.8-8.5-14.2-10-23.7-10-24.5 0-43.2 21.5-43.2 45.2 0 19.5 12.2 32.2 31.7 32.2 9 0 20.2-4.9 26.5-11.9-.5 1.5-1 4.7-1 6.2 0 2.3 1 4 3.2 4H200c2.7 0 5-2.9 5.5-5.7l10.2-64.3c.3-1.9-1.2-3.9-3.2-3.9zm40.5 97.9l63.7-92.6c.5-.5.5-1 .5-1.7 0-1.7-1.5-3.5-3.2-3.5h-19.2c-1.7 0-3.5 1-4.5 2.5l-26.5 39-11-37.5c-.8-2.2-3-4-5.5-4h-18.7c-1.7 0-3.2 1.8-3.2 3.5 0 1.2 19.5 56.8 21.2 62.1-2.7 3.8-20.5 28.6-20.5 31.6 0 1.8 1.5 3.2 3.2 3.2h19.2c1.8-.1 3.5-1.1 4.5-2.6zm159.3-106.7c0-21-16.2-28-34.7-28h-39.7c-2.7 0-5.2 2-5.5 4.7l-16.2 102c-.2 2 1.3 4 3.2 4h20.5c2 0 3.5-1.5 4-3.2l4.5-29c1-7.2 13.2-4.7 18-4.7 28.4 0 45.9-17 45.9-45.8zm84.2 8.8h-19c-3.8 0-4 5.5-4.3 8.2-5.5-8.5-14-10-23.7-10-24.5 0-43.2 21.5-43.2 45.2 0 19.5 12.2 32.2 31.7 32.2 9.3 0 20.5-4.9 26.5-11.9-.3 1.5-1 4.7-1 6.2 0 2.3 1 4 3.2 4H484c2.7 0 5-2.9 5.5-5.7l10.2-64.3c.3-1.9-1.2-3.9-3.2-3.9zm47.5-33.3c0-2-1.5-3.5-3.2-3.5h-18.5c-1.5 0-3 1.2-3.2 2.7l-16.2 104-.3.5c0 1.8 1.5 3.5 3.5 3.5h16.5c2.5 0 5-2.9 5.2-5.7L544 191.2v-.3zm-90 51.8c-12.2 0-21.7 9.7-21.7 22 0 9.7 7 15 16.2 15 12 0 21.7-9.2 21.7-21.5.1-9.8-6.9-15.5-16.2-15.5z"/></symbol><symbol viewBox="0 0 576 512" class="amsvg-inline--fa amfa-cc-visa amfa-w-18 amfa-3x" id="cc-visa" xmlns="http://www.w3.org/2000/svg"><path d="M470.1 231.3s7.6 37.2 9.3 45H446c3.3-8.9 16-43.5 16-43.5-.2.3 3.3-9.1 5.3-14.9l2.8 13.4zM576 80v352c0 26.5-21.5 48-48 48H48c-26.5 0-48-21.5-48-48V80c0-26.5 21.5-48 48-48h480c26.5 0 48 21.5 48 48zM152.5 331.2L215.7 176h-42.5l-39.3 106-4.3-21.5-14-71.4c-2.3-9.9-9.4-12.7-18.2-13.1H32.7l-.7 3.1c15.8 4 29.9 9.8 42.2 17.1l35.8 135h42.5zm94.4.2L272.1 176h-40.2l-25.1 155.4h40.1zm139.9-50.8c.2-17.7-10.6-31.2-33.7-42.3-14.1-7.1-22.7-11.9-22.7-19.2.2-6.6 7.3-13.4 23.1-13.4 13.1-.3 22.7 2.8 29.9 5.9l3.6 1.7 5.5-33.6c-7.9-3.1-20.5-6.6-36-6.6-39.7 0-67.6 21.2-67.8 51.4-.3 22.3 20 34.7 35.2 42.2 15.5 7.6 20.8 12.6 20.8 19.3-.2 10.4-12.6 15.2-24.1 15.2-16 0-24.6-2.5-37.7-8.3l-5.3-2.5-5.6 34.9c9.4 4.3 26.8 8.1 44.8 8.3 42.2.1 69.7-20.8 70-53zM528 331.4L495.6 176h-31.1c-9.6 0-16.9 2.8-21 12.9l-59.7 142.5H426s6.9-19.2 8.4-23.3H486c1.2 5.5 4.8 23.3 4.8 23.3H528z"/></symbol><symbol viewBox="0 0 448 512" id="check-square" xmlns="http://www.w3.org/2000/svg"><path d="M400 480H48c-26.51 0-48-21.49-48-48V80c0-26.51 21.49-48 48-48h352c26.51 0 48 21.49 48 48v352c0 26.51-21.49 48-48 48zm-204.686-98.059l184-184c6.248-6.248 6.248-16.379 0-22.627l-22.627-22.627c-6.248-6.248-16.379-6.249-22.628 0L184 302.745l-70.059-70.059c-6.248-6.248-16.379-6.248-22.628 0l-22.627 22.627c-6.248 6.248-6.248 16.379 0 22.627l104 104c6.249 6.25 16.379 6.25 22.628.001z"/></symbol><symbol viewBox="0 0 576 512" id="comment-alt" xmlns="http://www.w3.org/2000/svg"><path d="M576 240c0 115-129 208-288 208-48.3 0-93.9-8.6-133.9-23.8-40.3 31.2-89.8 50.3-142.4 55.7-5.2.6-10.2-2.8-11.5-7.7-1.3-5 2.7-8.1 6.6-11.8 19.3-18.4 42.7-32.8 51.9-94.6C21.9 330.9 0 287.3 0 240 0 125.1 129 32 288 32s288 93.1 288 208zm-416-48c-26.5 0-48 21.5-48 48s21.5 48 48 48 48-21.5 48-48-21.5-48-48-48zm128 0c-26.5 0-48 21.5-48 48s21.5 48 48 48 48-21.5 48-48-21.5-48-48-48zm128 0c-26.5 0-48 21.5-48 48s21.5 48 48 48 48-21.5 48-48-21.5-48-48-48z"/></symbol><symbol viewBox="0 0 576 512" id="credit-card" xmlns="http://www.w3.org/2000/svg"><path d="M527.9 32H48.1C21.5 32 0 53.5 0 80v352c0 26.5 21.5 48 48.1 48h479.8c26.6 0 48.1-21.5 48.1-48V80c0-26.5-21.5-48-48.1-48zM54.1 80h467.8c3.3 0 6 2.7 6 6v42H48.1V86c0-3.3 2.7-6 6-6zm467.8 352H54.1c-3.3 0-6-2.7-6-6V256h479.8v170c0 3.3-2.7 6-6 6zM192 332v40c0 6.6-5.4 12-12 12h-72c-6.6 0-12-5.4-12-12v-40c0-6.6 5.4-12 12-12h72c6.6 0 12 5.4 12 12zm192 0v40c0 6.6-5.4 12-12 12H236c-6.6 0-12-5.4-12-12v-40c0-6.6 5.4-12 12-12h136c6.6 0 12 5.4 12 12z"/></symbol><symbol viewBox="0 0 174.239 174.239" id="delete-button" xmlns="http://www.w3.org/2000/svg"><path d="M87.12 0C39.082 0 0 39.082 0 87.12s39.082 87.12 87.12 87.12 87.12-39.082 87.12-87.12S135.157 0 87.12 0zm0 159.305c-39.802 0-72.185-32.383-72.185-72.185S47.318 14.935 87.12 14.935s72.185 32.383 72.185 72.185-32.384 72.185-72.185 72.185z"/><path d="M120.83 53.414c-2.917-2.917-7.647-2.917-10.559 0L87.12 76.568 63.969 53.414c-2.917-2.917-7.642-2.917-10.559 0s-2.917 7.642 0 10.559l23.151 23.153-23.152 23.154a7.464 7.464 0 0 0 0 10.559 7.445 7.445 0 0 0 5.28 2.188 7.437 7.437 0 0 0 5.28-2.188L87.12 97.686l23.151 23.153a7.445 7.445 0 0 0 5.28 2.188 7.442 7.442 0 0 0 5.28-2.188 7.464 7.464 0 0 0 0-10.559L97.679 87.127l23.151-23.153a7.465 7.465 0 0 0 0-10.56z"/></symbol><symbol viewBox="0 0 512 512" id="envelope" xmlns="http://www.w3.org/2000/svg"><path d="M502.3 190.8c3.9-3.1 9.7-.2 9.7 4.7V400c0 26.5-21.5 48-48 48H48c-26.5 0-48-21.5-48-48V195.6c0-5 5.7-7.8 9.7-4.7 22.4 17.4 52.1 39.5 154.1 113.6 21.1 15.4 56.7 47.8 92.2 47.6 35.7.3 72-32.8 92.3-47.6 102-74.1 131.6-96.3 154-113.7zM256 320c23.2.4 56.6-29.2 73.4-41.4 132.7-96.3 142.8-104.7 173.4-128.7 5.8-4.5 9.2-11.5 9.2-18.9v-19c0-26.5-21.5-48-48-48H48C21.5 64 0 85.5 0 112v19c0 7.4 3.4 14.3 9.2 18.9 30.6 23.9 40.7 32.4 173.4 128.7 16.8 12.2 50.2 41.8 73.4 41.4z"/></symbol><symbol class="assvg-inline--fa asfa-camera-retro asfa-w-16" viewBox="0 0 512 512" id="fontawesome" xmlns="http://www.w3.org/2000/svg"><path d="M48 32C21.5 32 0 53.5 0 80v352c0 26.5 21.5 48 48 48h416c26.5 0 48-21.5 48-48V80c0-26.5-21.5-48-48-48H48zm0 32h106c3.3 0 6 2.7 6 6v20c0 3.3-2.7 6-6 6H38c-3.3 0-6-2.7-6-6V80c0-8.8 7.2-16 16-16zm426 96H38c-3.3 0-6-2.7-6-6v-36c0-3.3 2.7-6 6-6h138l30.2-45.3c1.1-1.7 3-2.7 5-2.7H464c8.8 0 16 7.2 16 16v74c0 3.3-2.7 6-6 6zM256 424c-66.2 0-120-53.8-120-120s53.8-120 120-120 120 53.8 120 120-53.8 120-120 120zm0-208c-48.5 0-88 39.5-88 88s39.5 88 88 88 88-39.5 88-88-39.5-88-88-88zm-48 104c-8.8 0-16-7.2-16-16 0-35.3 28.7-64 64-64 8.8 0 16 7.2 16 16s-7.2 16-16 16c-17.6 0-32 14.4-32 32 0 8.8-7.2 16-16 16z"/></symbol><symbol viewBox="0 0 442.003 442.003" id="funds" xmlns="http://www.w3.org/2000/svg"><path d="M337.897 189.476c-.01-.082-.016-.165-.028-.246a9.855 9.855 0 0 0-.244-1.205l-.004-.013a9.962 9.962 0 0 0-.379-1.102c-.042-.104-.088-.204-.133-.306a9.948 9.948 0 0 0-.385-.774c-.061-.111-.12-.222-.186-.331-.035-.059-.063-.12-.1-.179-.148-.235-.31-.456-.474-.675-.031-.041-.056-.084-.087-.124a9.722 9.722 0 0 0-.803-.91c-.053-.054-.111-.104-.166-.156a10.075 10.075 0 0 0-.767-.668c-.068-.053-.134-.106-.204-.157-.356-.264-.723-.51-1.106-.723L185.506 98.164l84.825-53.414 142.207 80.832-59.891 37.713c-4.674 2.942-6.077 9.117-3.134 13.79 2.942 4.674 9.116 6.077 13.79 3.134l74.026-46.613a9.996 9.996 0 0 0 4.669-8.688 9.996 9.996 0 0 0-5.056-8.468L275.009 24.404a10.001 10.001 0 0 0-10.27.231L160.783 90.096l-.064.04-51.947 32.711a4.4 4.4 0 0 0-.071.045L4.674 188.398a9.996 9.996 0 0 0-4.669 8.688 9.996 9.996 0 0 0 5.056 8.468L166.995 297.6a9.995 9.995 0 0 0 10.269-.231l74.026-46.614c4.674-2.942 6.077-9.117 3.134-13.79-2.941-4.674-9.117-6.078-13.79-3.134l-68.961 43.424-142.207-80.834 84.826-53.415 151.67 86.212V343.4a10 10 0 0 0 15.328 8.462l52.014-32.753a10 10 0 0 0 4.672-8.462v-120c0-.059-.01-.115-.012-.174a10.135 10.135 0 0 0-.067-.997zm-51.935 135.811V223.401a9.998 9.998 0 0 0-5.059-8.693l-147.411-83.791 32.813-20.663 142.206 80.833-12.451 7.84c-4.674 2.942-6.077 9.117-3.134 13.79a9.988 9.988 0 0 0 8.472 4.673 9.95 9.95 0 0 0 5.318-1.539l11.259-7.089v96.366l-32.013 20.159z"/><path d="M426.674 156.681l-74.026 46.613c-4.674 2.942-6.077 9.117-3.134 13.79a9.988 9.988 0 0 0 8.472 4.673 9.95 9.95 0 0 0 5.318-1.539l74.026-46.613c4.674-2.942 6.077-9.117 3.134-13.79-2.942-4.674-9.117-6.078-13.79-3.134zM240.633 273.83l-68.961 43.424-156.729-89.087c-4.798-2.728-10.906-1.052-13.635 3.752-2.729 4.801-1.05 10.906 3.752 13.635L166.994 337.6a9.995 9.995 0 0 0 10.269-.231l74.026-46.614c4.674-2.942 6.077-9.117 3.134-13.79-2.941-4.675-9.117-6.079-13.79-3.135zm186.041-77.149l-74.026 46.613c-4.674 2.942-6.077 9.117-3.134 13.79a9.988 9.988 0 0 0 8.472 4.673 9.95 9.95 0 0 0 5.318-1.539l74.026-46.613c4.674-2.942 6.077-9.117 3.134-13.79-2.942-4.675-9.117-6.078-13.79-3.134z"/><path d="M240.633 313.83l-68.961 43.424-156.729-89.087c-4.798-2.728-10.906-1.052-13.635 3.752-2.729 4.801-1.05 10.906 3.752 13.635L166.994 377.6a9.995 9.995 0 0 0 10.269-.231l74.026-46.614c4.674-2.942 6.077-9.117 3.134-13.79-2.941-4.676-9.117-6.079-13.79-3.135zm186.041-77.149l-74.026 46.613c-4.674 2.942-6.077 9.117-3.134 13.79a9.988 9.988 0 0 0 8.472 4.673 9.95 9.95 0 0 0 5.318-1.539l74.026-46.613c4.674-2.942 6.077-9.117 3.134-13.79-2.942-4.674-9.117-6.077-13.79-3.134z"/><path d="M240.633 353.83l-68.961 43.424-156.729-89.087c-4.798-2.728-10.906-1.052-13.635 3.752-2.729 4.801-1.05 10.906 3.752 13.635L166.994 417.6a9.995 9.995 0 0 0 10.269-.231l74.026-46.614c4.674-2.942 6.077-9.117 3.134-13.79-2.941-4.675-9.117-6.079-13.79-3.135z"/></symbol><symbol viewBox="0 0 321.145 321.145" id="game" xmlns="http://www.w3.org/2000/svg"><path d="M320.973 200.981c-.8-18.4-4-38.8-8.8-58-4.8-18.4-10.8-35.6-18-48.8-28-49.2-58.4-41.6-94.8-32-11.6 2.8-24 6-36.8 7.2h-4c-12.8-1.2-25.2-4.4-36.8-7.2-36.4-9.2-66.8-17.2-94.8 32.4-7.2 13.2-13.6 30.4-18 48.8-4.8 19.2-8 39.6-8.8 58-.8 20.4 1.2 35.2 5.6 45.6 4.4 9.6 10.8 15.6 19.2 18 7.6 2 16.4 1.2 25.6-2.8 15.6-6.4 33.6-20 51.2-36.4 12.4-12 35.6-18 58.8-18s46.4 6 58.8 18c17.6 16.4 35.6 30 51.2 36.4 9.2 3.6 18 4.8 25.6 2.8 8-2.4 14.8-8 19.2-18.4 4.4-10 6.4-24.8 5.6-45.6zm-19.2 40c-2.4 5.6-5.6 8.8-9.6 10-4.4 1.2-10 .4-16.4-2-14-5.6-30.4-18-46.4-33.2-15.2-15.2-42-22.8-68.8-22.8s-53.6 7.6-69.2 22c-16.4 15.2-32.8 28-46.4 33.2-6.4 2.4-12 3.6-16.4 2-4-1.2-7.2-4.4-9.6-10-3.2-7.6-4.8-20-4-38.4.8-17.2 3.6-36.8 8.4-55.2 4.4-17.2 10-33.2 16.8-45.2 22-39.6 47.6-33.2 78-25.2 12.4 3.2 25.2 6.4 39.2 7.6h6c14.4-1.2 27.2-4.4 39.6-7.6 30.4-7.6 56-14.4 78 25.2 6.8 12 12.4 27.6 16.8 45.2 4.4 18.4 7.6 37.6 8.4 55.2.8 18.4-.8 30.8-4.4 39.2z"/><path d="M123.773 122.981c-4-3.6-8.8-6.4-14.4-6.8-.4-5.2-2.8-10.4-6.4-14l-.4-.4c-4.4-4.4-10-6.8-16.4-6.8-6.4 0-12.4 2.8-16.4 6.8-3.6 3.6-6.4 8.8-6.8 14.4-5.6.4-10.4 2.8-14.4 6.4l-.4.4c-4.4 4.4-6.8 10-6.8 16.4 0 6.4 2.8 12.4 6.8 16.4 4 4 8.8 6.4 14.8 6.8.4 5.6 2.8 10.8 6.8 14.4 4.4 4.4 10 6.8 16.4 6.8 6.4 0 12.4-2.8 16.4-6.8 3.6-4 6.4-8.8 6.8-14.4 5.6-.4 10.8-2.8 14.4-6.8 4.4-4.4 6.8-10 6.8-16.4 0-6.4-2.8-12.4-6.8-16.4zm-10 22.4c-1.6 1.6-3.6 2.4-6 2.4h-5.6c-4 0-7.6 3.2-7.6 7.6v5.2c0 2.4-.8 4.4-2.4 6-1.6 1.6-3.6 2.4-6 2.4s-4.4-.8-6-2.4c-1.6-1.6-2.4-3.6-2.4-6v-5.6c0-4-3.2-7.6-7.6-7.6h-5.6c-2.4 0-4.4-.8-6-2.4-1.2-1.2-2.4-3.2-2.4-5.6 0-2.4.8-4.4 2.4-6l.4-.4c1.6-1.2 3.6-2 5.6-2h5.6c4 0 7.6-3.2 7.6-7.6v-5.6c0-2.4.8-4.4 2.4-6 1.6-1.6 3.6-2.4 6-2.4s4.4.8 6 2.4l.4.4c1.2 1.6 2 3.6 2 5.6v5.6c0 4 3.2 7.6 7.6 7.6h5.6c2.4 0 4.4.8 6 2.4 1.6 1.6 2.4 3.6 2.4 6s-.8 4.4-2.4 6z"/><circle cx="230.173" cy="110.981" r="14"/><circle cx="230.173" cy="167.781" r="14"/><circle cx="201.773" cy="139.381" r="14"/><circle cx="258.573" cy="139.381" r="14"/></symbol><symbol viewBox="0 0 640 512" id="graduation-cap" xmlns="http://www.w3.org/2000/svg"><path d="M622.884 199.005l-275.817 85.1a96 96 0 0 1-54.134 0L92.398 222.232c-8.564 11.438-11.018 23.05-11.918 38.335C89.778 266.165 96 276.355 96 288c0 11.952-6.557 22.366-16.265 27.861l16.197 123.096c.63 4.786-3.1 9.043-7.932 9.043H40c-4.828 0-8.562-4.253-7.932-9.044L48.265 315.86C38.557 310.366 32 299.952 32 288c0-12.034 6.646-22.511 16.465-27.976.947-17.951 3.974-33.231 12.152-47.597l-43.502-13.422c-22.876-6.801-22.766-39.241 0-46.01l275.817-85.1a96 96 0 0 1 54.134 0l275.817 85.1c22.877 6.801 22.767 39.241.001 46.01zM356.503 314.682l-.207.064-.207.061a127.998 127.998 0 0 1-72.177 0l-.207-.061-.207-.064-150.914-46.57L120 352c0 35.346 89.543 64 200 64s200-28.654 200-64l-12.583-83.888-150.914 46.57z"/></symbol><symbol viewBox="0 0 576 512" id="heart" xmlns="http://www.w3.org/2000/svg"><path d="M414.9 24C361.8 24 312 65.7 288 89.3 264 65.7 214.2 24 161.1 24 70.3 24 16 76.9 16 165.5c0 72.6 66.8 133.3 69.2 135.4l187 180.8c8.8 8.5 22.8 8.5 31.6 0l186.7-180.2c2.7-2.7 69.5-63.5 69.5-136C560 76.9 505.7 24 414.9 24z"/></symbol><symbol viewBox="0 0 51.413 51.413" id="home-phone" xmlns="http://www.w3.org/2000/svg"><path d="M25.989 12.274c8.663.085 14.09-.454 14.823 9.148h10.564c0-14.875-12.973-16.88-25.662-16.88-12.69 0-25.662 2.005-25.662 16.88h10.482c.811-9.785 6.864-9.232 15.455-9.148zM5.291 26.204c2.573 0 4.714.154 5.19-2.377.064-.344.101-.734.101-1.185H0c0 3.765 2.369 3.562 5.291 3.562zm35.589-3.562h-.099c0 .454.039.845.112 1.185.502 2.334 2.64 2.189 5.204 2.189 2.936 0 5.316.193 5.316-3.374H40.88z"/><path d="M35.719 20.078v-1.496c0-.669-.771-.711-1.723-.711h-1.555c-.951 0-1.722.042-1.722.711v2.289h-11v-2.289c0-.669-.771-.711-1.722-.711h-1.556c-.951 0-1.722.042-1.722.711v2.802C12.213 23.988 4.013 35.073 3.715 36.415l.004 8.955c0 .827.673 1.5 1.5 1.5h40c.827 0 1.5-.673 1.5-1.5v-9c-.295-1.303-8.493-12.383-11-14.987v-1.305zM19.177 37.62a1.458 1.458 0 1 1 0-2.915 1.458 1.458 0 0 1 0 2.915zm0-5a1.458 1.458 0 1 1 0-2.915 1.458 1.458 0 0 1 0 2.915zm0-4.999a1.458 1.458 0 1 1 0-2.915 1.458 1.458 0 0 1 0 2.915zm6 9.999a1.458 1.458 0 1 1 0-2.915 1.458 1.458 0 0 1 0 2.915zm0-5a1.458 1.458 0 1 1 0-2.915 1.458 1.458 0 0 1 0 2.915zm0-4.999a1.458 1.458 0 1 1 0-2.915 1.458 1.458 0 0 1 0 2.915zm6 9.999a1.457 1.457 0 1 1 0-2.916 1.457 1.457 0 1 1 0 2.916zm0-5a1.457 1.457 0 1 1 0-2.916 1.457 1.457 0 1 1 0 2.916zm0-4.999a1.457 1.457 0 1 1 0-2.916 1.458 1.458 0 1 1 0 2.916z"/></symbol><symbol viewBox="0 0 512 512" id="house" xmlns="http://www.w3.org/2000/svg"><path d="M307.232 256h-153.6v34.133h141.269c11.503 0 20.864 9.361 20.864 20.872v38.861h34.133v-51.2C349.899 275.14 330.759 256 307.232 256zm25.6 148.6l-11.034 11.034c-6.084 6.084-6.084 15.983 0 22.067s15.983 6.084 22.067 0 6.084-15.983 0-22.067L332.832 404.6z"/><path d="M488.591 188.817L292.538 14.916c-20.565-19.806-52.762-19.797-73.114-.171l-65.792 59.827V51.2h8.533a8.53 8.53 0 0 0 8.533-8.533V8.533A8.53 8.53 0 0 0 162.165 0h-102.4a8.53 8.53 0 0 0-8.533 8.533v34.133a8.53 8.53 0 0 0 8.533 8.533h8.533v98.5l-44.843 38.895c-5.973 5.291-7.996 13.534-5.163 20.992s9.813 12.279 17.792 12.279h32.213V460.8h-8.533a8.53 8.53 0 0 0-8.533 8.533v34.133a8.53 8.53 0 0 0 8.533 8.533h392.465a8.527 8.527 0 0 0 8.533-8.516l.068-34.133a8.5 8.5 0 0 0-2.492-6.05 8.518 8.518 0 0 0-6.042-2.5h-8.533V221.867h32.273c7.927 0 14.857-4.787 17.681-12.194 2.81-7.399.796-15.591-5.126-20.856zM355.932 449.766c-6.366 6.374-14.737 9.557-23.1 9.557s-16.734-3.183-23.1-9.557c-12.74-12.74-12.74-33.459 0-46.199l17.067-17.067a8.525 8.525 0 0 1 12.066 0l17.067 17.067c12.74 12.74 12.74 33.459 0 46.199zm11.034-91.366a8.53 8.53 0 0 1-8.533 8.533h-51.2a8.53 8.53 0 0 1-8.533-8.533v-47.394a3.808 3.808 0 0 0-3.797-3.806H145.099a8.53 8.53 0 0 1-8.533-8.533v-51.2a8.53 8.53 0 0 1 8.533-8.533h110.933V204.86l-25.591.043h-.008c-4.71 0-8.525-3.814-8.533-8.525-.008-4.71 3.806-8.533 8.525-8.542l68.267-.102h.009c4.71 0 8.525 3.814 8.533 8.525.009 4.71-3.806 8.533-8.525 8.542l-25.609.034v34.099h34.133c32.93 0 59.733 26.795 59.733 59.733V358.4z"/></symbol><symbol viewBox="0 0 512 512" id="house_-_Copy" xmlns="http://www.w3.org/2000/svg"><path d="M307.232 256h-153.6v34.133h141.269c11.503 0 20.864 9.361 20.864 20.872v38.861h34.133v-51.2C349.899 275.14 330.759 256 307.232 256zm25.6 148.6l-11.034 11.034c-6.084 6.084-6.084 15.983 0 22.067s15.983 6.084 22.067 0 6.084-15.983 0-22.067L332.832 404.6z"/><path d="M488.591 188.817L292.538 14.916c-20.565-19.806-52.762-19.797-73.114-.171l-65.792 59.827V51.2h8.533a8.53 8.53 0 0 0 8.533-8.533V8.533A8.53 8.53 0 0 0 162.165 0h-102.4a8.53 8.53 0 0 0-8.533 8.533v34.133a8.53 8.53 0 0 0 8.533 8.533h8.533v98.5l-44.843 38.895c-5.973 5.291-7.996 13.534-5.163 20.992s9.813 12.279 17.792 12.279h32.213V460.8h-8.533a8.53 8.53 0 0 0-8.533 8.533v34.133a8.53 8.53 0 0 0 8.533 8.533h392.465a8.527 8.527 0 0 0 8.533-8.516l.068-34.133a8.5 8.5 0 0 0-2.492-6.05 8.518 8.518 0 0 0-6.042-2.5h-8.533V221.867h32.273c7.927 0 14.857-4.787 17.681-12.194 2.81-7.399.796-15.591-5.126-20.856zM355.932 449.766c-6.366 6.374-14.737 9.557-23.1 9.557s-16.734-3.183-23.1-9.557c-12.74-12.74-12.74-33.459 0-46.199l17.067-17.067a8.525 8.525 0 0 1 12.066 0l17.067 17.067c12.74 12.74 12.74 33.459 0 46.199zm11.034-91.366a8.53 8.53 0 0 1-8.533 8.533h-51.2a8.53 8.53 0 0 1-8.533-8.533v-47.394a3.808 3.808 0 0 0-3.797-3.806H145.099a8.53 8.53 0 0 1-8.533-8.533v-51.2a8.53 8.53 0 0 1 8.533-8.533h110.933V204.86l-25.591.043h-.008c-4.71 0-8.525-3.814-8.533-8.525-.008-4.71 3.806-8.533 8.525-8.542l68.267-.102h.009c4.71 0 8.525 3.814 8.533 8.525.009 4.71-3.806 8.533-8.525 8.542l-25.609.034v34.099h34.133c32.93 0 59.733 26.795 59.733 59.733V358.4z"/></symbol><symbol viewBox="0 0 512 512" id="info" xmlns="http://www.w3.org/2000/svg"><path d="M437.019 74.982C388.667 26.628 324.381 0 256 0S123.333 26.628 74.982 74.982C26.628 123.333 0 187.619 0 256s26.628 132.667 74.982 181.019C123.333 485.372 187.619 512 256 512s132.667-26.628 181.019-74.981C485.372 388.667 512 324.381 512 256s-26.628-132.667-74.981-181.018zM256 491.602c-129.911 0-235.602-105.69-235.602-235.602S126.089 20.398 256 20.398 491.602 126.089 491.602 256 385.911 491.602 256 491.602z"/><path d="M462.131 298.131a10.193 10.193 0 0 0-12.4 7.367c-5.689 22.34-15.158 43.377-28.142 62.528-3.161 4.663-1.943 11.004 2.719 14.166a10.156 10.156 0 0 0 5.715 1.758c3.268 0 6.48-1.568 8.451-4.478 14.313-21.11 24.751-44.306 31.024-68.94 1.39-5.459-1.907-11.012-7.367-12.401zm3.973-52.33c-5.632 0-10.199 4.567-10.199 10.199 0 2.915-.063 5.855-.188 8.739-.244 5.628 4.121 10.387 9.749 10.63.15.007.299.01.448.01 5.43 0 9.945-4.282 10.182-9.759.138-3.176.207-6.412.207-9.62 0-5.632-4.567-10.199-10.199-10.199zM256 172.877c-19.683 0-35.697 16.014-35.697 35.697V386.04c0 19.683 16.014 35.697 35.697 35.697 19.683 0 35.697-16.014 35.697-35.697V208.574c0-19.684-16.014-35.697-35.697-35.697zm15.299 213.163c0 8.436-6.863 15.299-15.299 15.299s-15.299-6.863-15.299-15.299V208.574c0-8.436 6.863-15.299 15.299-15.299s15.299 6.863 15.299 15.299V386.04zm9.936-285.333c-6.652-6.638-15.851-10.444-25.235-10.444-9.385 0-18.584 3.806-25.246 10.453-6.642 6.644-10.451 15.844-10.451 25.244 0 9.384 3.806 18.583 10.46 25.251 6.652 6.639 15.851 10.446 25.237 10.446 9.385 0 18.584-3.807 25.251-10.461 6.639-6.652 10.446-15.851 10.446-25.236 0-9.4-3.809-18.601-10.462-25.253zm-14.408 36.066c-2.858 2.85-6.804 4.486-10.827 4.486a15.432 15.432 0 0 1-10.813-4.47c-2.85-2.858-4.486-6.805-4.486-10.828 0-4.032 1.633-7.976 4.469-10.813 2.858-2.85 6.805-4.486 10.83-4.486 4.024 0 7.971 1.636 10.819 4.478a15.405 15.405 0 0 1 4.479 10.82 15.424 15.424 0 0 1-4.471 10.813z"/></symbol><symbol viewBox="0 0 512 512" class="bbsvg-inline--fa bbfa-info-circle bbfa-w-16 bbfa-3x" id="info-circle" xmlns="http://www.w3.org/2000/svg"><path d="M256 40c118.621 0 216 96.075 216 216 0 119.291-96.61 216-216 216-119.244 0-216-96.562-216-216 0-119.203 96.602-216 216-216m0-32C119.043 8 8 119.083 8 256c0 136.997 111.043 248 248 248s248-111.003 248-248C504 119.083 392.957 8 256 8zm-36 344h12V232h-12c-6.627 0-12-5.373-12-12v-8c0-6.627 5.373-12 12-12h48c6.627 0 12 5.373 12 12v140h12c6.627 0 12 5.373 12 12v8c0 6.627-5.373 12-12 12h-72c-6.627 0-12-5.373-12-12v-8c0-6.627 5.373-12 12-12zm36-240c-17.673 0-32 14.327-32 32s14.327 32 32 32 32-14.327 32-32-14.327-32-32-32z"/></symbol><symbol viewBox="0 0 480.031 480.031" id="insurance" xmlns="http://www.w3.org/2000/svg"><path d="M264.728 224.016l-24.264-2.2c-30.976-2.816-54.984-39.304-56.472-46.192a8.191 8.191 0 0 0-8-7.88 7.792 7.792 0 0 0-8 7.464v.424c-1.488 6.88-25.488 43.384-56.472 46.192l-24.248 2.192a8 8 0 0 0-7.272 8v15.336c.084 61.98 36.298 118.221 92.688 143.944a8 8 0 0 0 6.624 0c56.39-25.723 92.604-81.964 92.688-143.944v-15.336a8 8 0 0 0-7.272-8zM256 247.32c-.049 54.413-31.094 104.044-80 127.896-48.896-23.847-79.938-73.463-80-127.864v-8.032l16.992-1.536c27.304-2.488 51.144-25.064 63.008-43.056 11.864 17.992 35.704 40.568 63.008 43.056L256 239.32v8z"/><path d="M416.554 293.688A95.956 95.956 0 0 0 384 288.016a95.377 95.377 0 0 0-32 5.6v-237.6a8 8 0 0 0-8-8H239.432C235.419 20.48 211.826.05 184 .016h-16c-27.826.035-51.419 20.465-55.432 48H8a8 8 0 0 0-8 8v416a8 8 0 0 0 8 8h336a7.896 7.896 0 0 0 7.552-5.768c49.86 17.95 104.831-7.919 122.781-57.779 17.95-49.861-7.919-104.832-57.779-122.781zM280 64.016h56V301a96.403 96.403 0 0 0-16 11.656V88.016a8 8 0 0 0-8-8h-32v-16zm-192 0h32a8 8 0 0 0 8-8c.026-22.08 17.92-39.974 40-40h16c22.08.026 39.974 17.92 40 40a8 8 0 0 0 8 8h32v32H88v-32zm-8 48h192a8 8 0 0 0 8-8v-8h24v235.048c-20.19 30.317-21.361 69.484-3.016 100.952H48v-336h24v8a8 8 0 0 0 8 8zm-64 352v-400h56v16H40a8 8 0 0 0-8 8v352a8 8 0 0 0 8 8h272c.192 0 .36-.096.544-.112a96.624 96.624 0 0 0 18.504 16.112H16zm368 0c-44.183 0-80-35.817-80-80s35.817-80 80-80 80 35.817 80 80c-.053 44.16-35.839 79.947-80 80z"/><path d="M440 352.016h-24v-24a8 8 0 0 0-8-8h-48a8 8 0 0 0-8 8v24h-24a8 8 0 0 0-8 8v48a8 8 0 0 0 8 8h24v24a8 8 0 0 0 8 8h48a8 8 0 0 0 8-8v-24h24a8 8 0 0 0 8-8v-48a8 8 0 0 0-8-8zm-8 48h-24a8 8 0 0 0-8 8v24h-32v-24a8 8 0 0 0-8-8h-24v-32h24a8 8 0 0 0 8-8v-24h32v24a8 8 0 0 0 8 8h24v32zm-208-152a102.735 102.735 0 0 1-52 89.088l8.424 13.6c36.806-21.099 59.528-60.263 59.576-102.688h-16z"/></symbol><symbol viewBox="0 0 512 512" class="bdsvg-inline--fa bdfa-key bdfa-w-16 bdfa-3x" id="key" xmlns="http://www.w3.org/2000/svg"><path d="M512 176.001C512 273.203 433.202 352 336 352c-11.22 0-22.19-1.062-32.827-3.069l-24.012 27.014A23.999 23.999 0 0 1 261.223 384H224v40c0 13.255-10.745 24-24 24h-40v40c0 13.255-10.745 24-24 24H24c-13.255 0-24-10.745-24-24v-78.059c0-6.365 2.529-12.47 7.029-16.971l161.802-161.802C163.108 213.814 160 195.271 160 176 160 78.798 238.797.001 335.999 0 433.488-.001 512 78.511 512 176.001zM336 128c0 26.51 21.49 48 48 48s48-21.49 48-48-21.49-48-48-48-48 21.49-48 48z"/></symbol><symbol viewBox="0 0 205.398 205.398" id="light-bulb" xmlns="http://www.w3.org/2000/svg"><path d="M66.839 174.564c.951 10.665 9.67 30.834 35.86 30.834 26.191 0 34.909-20.169 35.859-30.835l.029-28.379c25.432-13.301 41.611-39.745 41.611-68.685 0-42.733-34.767-77.5-77.5-77.5s-77.5 34.767-77.5 77.5c0 28.94 16.176 55.383 41.61 68.685v27.713l.031.667zm35.86 15.834c-8.074 0-13.781-2.658-17.448-8.125a20.419 20.419 0 0 1-.551-.875h35.998c-.175.292-.355.585-.551.876-3.667 5.467-9.374 8.124-17.448 8.124zM40.199 77.5c0-34.462 28.037-62.5 62.5-62.5s62.5 28.038 62.5 62.5c0 24.674-14.585 47.099-37.157 57.129l-4.454 1.979v29.79h-13.389V86.905l16.804-16.803-10.607-10.606L102.7 73.193 89.003 59.496 78.396 70.102 95.2 86.905v79.493H81.81v-29.79l-4.454-1.98c-22.572-10.03-37.157-32.455-37.157-57.128z"/></symbol><symbol viewBox="0 0 450 370" id="manat-symbol" xmlns="http://www.w3.org/2000/svg"><path d="M200.212 345.464l9.815-330.743L242.414.981l3.926 317.985-46.128 26.498z" fill-rule="evenodd"/><path d="M0 365.093l45.146 1.963c.871-220.624 119.318-293.37 177.64-295.411 157.587 5.03 175.651 206.518 181.564 295.41l45.146 1.964C446.1 156.053 329.381 39.219 233.581 41.22 70.232 46.978 8.02 213.705 0 365.093z" fill-rule="evenodd"/></symbol><symbol viewBox="0 0 384 512" class="bgsvg-inline--fa bgfa-map-marker-alt bgfa-w-12 bgfa-5x" id="map-market-all" xmlns="http://www.w3.org/2000/svg"><path d="M172.268 501.67C26.97 291.031 0 269.413 0 192 0 85.961 85.961 0 192 0s192 85.961 192 192c0 77.413-26.97 99.031-172.268 309.67-9.535 13.774-29.93 13.773-39.464 0zM192 272c44.183 0 80-35.817 80-80s-35.817-80-80-80-80 35.817-80 80 35.817 80 80 80z"/></symbol><symbol viewBox="0 0 320 512" id="mobile-alt" xmlns="http://www.w3.org/2000/svg"><path d="M272 0H48C21.5 0 0 21.5 0 48v416c0 26.5 21.5 48 48 48h224c26.5 0 48-21.5 48-48V48c0-26.5-21.5-48-48-48zM160 480c-17.7 0-32-14.3-32-32s14.3-32 32-32 32 14.3 32 32-14.3 32-32 32zm112-108c0 6.6-5.4 12-12 12H60c-6.6 0-12-5.4-12-12V60c0-6.6 5.4-12 12-12h200c6.6 0 12 5.4 12 12v312z"/></symbol><symbol viewBox="0 0 99.004 99.004" id="mode-circular-button" xmlns="http://www.w3.org/2000/svg"><path d="M49.502.002C22.207.002 0 22.209 0 49.504c0 27.293 22.207 49.498 49.502 49.498s49.502-22.203 49.502-49.498C99.004 22.207 76.797.002 49.502.002zm0 95.646c-25.444 0-46.145-20.701-46.145-46.146 0-25.444 20.701-46.145 46.145-46.145 25.443 0 46.146 20.701 46.146 46.145-.002 25.445-20.703 46.146-46.146 46.146z"/><circle cx="31.471" cy="49.207" r="3.715"/><path d="M50.309 45.778a3.724 3.724 0 0 0-3.716 3.718 3.715 3.715 0 1 0 3.716-3.718z"/><circle cx="69.146" cy="49.493" r="3.716"/></symbol><symbol viewBox="0 0 640 512" id="money-bill-alt" xmlns="http://www.w3.org/2000/svg"><path d="M640 120v272c0 13.255-10.745 24-24 24H24c-13.255 0-24-10.745-24-24V120c0-13.255 10.745-24 24-24h592c13.255 0 24 10.745 24 24zM96 384c0-35.346-28.654-64-64-64v64h64zm0-256H32v64c35.346 0 64-28.654 64-64zm304 128c0-53.021-35.816-96-80-96s-80 42.979-80 96c0 53.012 35.814 96 80 96 44.167 0 80-42.969 80-96zm208 64c-35.346 0-64 28.654-64 64h64v-64zm0-192h-64c0 35.346 28.654 64 64 64v-64zM277.563 299.527c0-7.477 3.917-11.572 11.573-11.572h15.131v-39.878c0-5.163.534-10.503.534-10.503h-.356s-1.779 2.67-2.848 3.738c-4.451 4.273-10.504 4.451-15.666-1.068l-5.518-6.231c-5.342-5.341-4.984-11.216.534-16.379l21.72-19.939c4.449-4.095 8.366-5.697 14.42-5.697h12.105c7.656 0 11.749 3.916 11.749 11.572v84.384h15.488c7.655 0 11.572 4.094 11.572 11.572v8.901c0 7.477-3.917 11.572-11.572 11.572h-67.293c-7.656 0-11.573-4.095-11.573-11.572v-8.9z"/></symbol><symbol viewBox="0 0 512 512" id="order" xmlns="http://www.w3.org/2000/svg"><path d="M157.662 102.614a8.017 8.017 0 0 0-8.017 8.017c0 9.725-7.912 17.637-17.637 17.637s-17.637-7.912-17.637-17.637 7.912-17.637 17.637-17.637a8.017 8.017 0 0 0 0-16.034c-18.566 0-33.67 15.105-33.67 33.67s15.105 33.67 33.67 33.67 33.67-15.105 33.67-33.67a8.016 8.016 0 0 0-8.016-8.016zm0 94.062a8.017 8.017 0 0 0-8.017 8.017c0 9.725-7.912 17.637-17.637 17.637s-17.637-7.912-17.637-17.637 7.912-17.637 17.637-17.637a8.017 8.017 0 0 0 0-16.034c-18.566 0-33.67 15.105-33.67 33.67s15.105 33.67 33.67 33.67 33.67-15.105 33.67-33.67a8.016 8.016 0 0 0-8.016-8.016zm94.062 17.103h-59.858a8.017 8.017 0 0 0 0 16.034h59.858a8.017 8.017 0 0 0 0-16.034zm0-34.205h-59.858a8.017 8.017 0 0 0 0 16.034h59.858a8.017 8.017 0 0 0 0-16.034zm-17.102 128.267h-42.756a8.017 8.017 0 0 0 0 16.034h42.756a8.017 8.017 0 0 0 0-16.034zm17.102-34.204h-59.858a8.017 8.017 0 0 0 0 16.034h59.858a8.017 8.017 0 0 0 0-16.034zm76.961-153.921H191.866a8.017 8.017 0 0 0 0 16.034h136.818a8.017 8.017 0 0 0 .001-16.034zM294.48 85.511H191.866a8.017 8.017 0 0 0 0 16.034H294.48a8.017 8.017 0 0 0 0-16.034zM157.662 290.739a8.017 8.017 0 0 0-8.017 8.017c0 9.725-7.912 17.637-17.637 17.637s-17.637-7.912-17.637-17.637 7.912-17.637 17.637-17.637a8.017 8.017 0 0 0 0-16.034c-18.566 0-33.67 15.105-33.67 33.67s15.105 33.67 33.67 33.67 33.67-15.105 33.67-33.67a8.016 8.016 0 0 0-8.016-8.016z"/><path d="M362.889 0H72.15C58.3 0 47.031 11.268 47.031 25.119v359.148c0 13.851 11.268 25.119 25.119 25.119h145.37a8.017 8.017 0 0 0 0-16.034H72.15c-5.01 0-9.086-4.076-9.086-9.086V25.119c0-5.01 4.076-9.086 9.086-9.086h290.739c5.01 0 9.086 4.076 9.086 9.086v265.087a8.017 8.017 0 0 0 16.034 0V25.119C388.008 11.268 376.74 0 362.889 0z"/><path d="M438.578 325.094c-7.451-.743-14.898 1.369-20.792 5.844-4.695-7.878-12.701-13.467-21.964-14.395-7.453-.742-14.899 1.37-20.792 5.844-4.695-7.878-12.701-13.467-21.964-14.395a29.618 29.618 0 0 0-16.365 3.069V208.969a29.45 29.45 0 0 0-9.677-21.8c-6.145-5.56-14.426-8.274-22.721-7.444-14.799 1.482-26.391 14.863-26.391 30.464v102.35l-23.566 23.566c-12.523 12.523-17.578 30.291-13.521 47.531l17.891 76.037c7.249 30.811 34.418 52.329 66.07 52.329h72.307c37.426 0 67.875-30.448 67.875-67.875V355.56c.001-15.603-11.591-28.984-26.39-30.466zm10.357 119.031c0 28.585-23.256 51.841-51.841 51.841h-72.307c-24.175 0-44.927-16.435-50.464-39.968l-17.891-76.037c-2.776-11.795.683-23.953 9.251-32.521l12.229-12.229v27.678a8.017 8.017 0 0 0 16.034 0V210.188c0-7.465 5.251-13.839 11.956-14.509 3.851-.387 7.534.815 10.366 3.379a13.393 13.393 0 0 1 4.401 9.912v141.094a8.017 8.017 0 0 0 16.034 0v-12.827c0-3.768 1.603-7.381 4.401-9.912 2.834-2.564 6.515-3.767 10.366-3.379 6.704.671 11.956 7.045 11.956 14.51v20.157a8.017 8.017 0 0 0 16.034 0v-12.827c0-3.768 1.603-7.381 4.401-9.912 2.834-2.564 6.516-3.766 10.366-3.379 6.704.671 11.956 7.045 11.956 14.51v20.158a8.017 8.017 0 0 0 16.034 0v-12.827c0-3.768 1.603-7.381 4.401-9.912 2.834-2.563 6.513-3.767 10.366-3.378 6.704.67 11.956 7.044 11.956 14.509v88.57z"/></symbol><symbol viewBox="0 0 511.962 511.962" id="payment" xmlns="http://www.w3.org/2000/svg"><path d="M378.12 223.962l-35.221-39.136a10.67 10.67 0 0 0-7.936-3.531h-75.115c-5.891 0-10.667-4.776-10.667-10.667 0-17.673 14.327-32 32-32h10.667c5.891 0 10.667 4.776 10.667 10.667s4.776 10.667 10.667 10.667h64v-21.333h-55.157a32.062 32.062 0 0 0-30.176-21.333h-10.667c-29.441.035-53.298 23.893-53.333 53.333 0 17.673 14.327 32 32 32h70.4l35.189 39.136a10.67 10.67 0 0 0 7.936 3.531h131.808v-21.333H378.12zM170.653 72.378l106.091-50.379 225.461 65.163 5.909-20.501L278.781.41a10.749 10.749 0 0 0-7.531.619L160.776 53.477a36.265 36.265 0 0 0-18.385 31.677c.069 20.029 16.361 36.211 36.391 36.142a36.274 36.274 0 0 0 17.291-4.416l80.181-43.392 41.269 30.4 12.651-17.216-46.731-34.411a10.666 10.666 0 0 0-11.392-.789l-86.144 46.624a14.937 14.937 0 0 1-7.122 1.81c-8.247.002-14.935-6.682-14.937-14.93a14.815 14.815 0 0 1 6.805-12.598z"/><path d="M255.453 188.762c-12.471 40.081-49.629 67.339-91.605 67.2a95.991 95.991 0 0 1-19.007-1.92c-51.959-10.551-85.527-61.225-74.977-113.184C80.415 88.9 131.089 55.332 183.048 65.882l4.267-20.907a117.237 117.237 0 0 0-23.231-2.346C99.282 42.564 46.697 95.043 46.632 159.844c-.065 64.801 52.414 117.386 117.215 117.451 51.303.167 96.714-33.147 111.957-82.133l-20.351-6.4zm-9.472-112.629l-14.933 15.232a96.332 96.332 0 0 1 24.416 39.797l20.384-6.4a117.734 117.734 0 0 0-29.867-48.629z"/><path d="M163.848 106.629V85.295c-23.564 0-42.667 19.103-42.667 42.667s19.103 42.667 42.667 42.667v-21.333c-11.782 0-21.333-9.551-21.333-21.333-.001-11.783 9.551-21.334 21.333-21.334z"/><path d="M163.848 149.295v21.333c11.782 0 21.333 9.551 21.333 21.333s-9.551 21.333-21.333 21.333c-11.782 0-21.333-9.551-21.333-21.333h-21.333c0 23.564 19.103 42.667 42.667 42.667s42.667-19.103 42.667-42.667-19.104-42.666-42.668-42.666z"/><path d="M153.181 223.962h21.333v21.333h-21.333zm32-117.333h21.333v32h-21.333zm224 341.333v32c0 5.891-4.776 10.667-10.667 10.667H35.848c-5.891 0-10.667-4.776-10.667-10.667V245.295c0-5.891 4.776-10.667 10.667-10.667h42.667v-21.333H35.848c-17.673 0-32 14.327-32 32v234.667c0 17.673 14.327 32 32 32h362.667c17.673 0 32-14.327 32-32v-32h-21.334z"/><path d="M14.514 298.629h405.333v21.333H14.514zm426.667 53.333h-85.333c-17.673 0-32 14.327-32 32v42.667c0 17.673 14.327 32 32 32h85.333c17.673 0 32-14.327 32-32v-42.667c0-17.673-14.327-32-32-32zm10.667 74.667c0 5.891-4.776 10.667-10.667 10.667h-85.333c-5.891 0-10.667-4.776-10.667-10.667v-42.667c0-5.891 4.776-10.667 10.667-10.667h85.333c5.891 0 10.667 4.776 10.667 10.667v42.667z"/><path d="M409.181 266.629h21.333v96h-21.333zm-42.667 128h21.333v21.333h-21.333zm-320 10.666h42.667v21.333H46.514zm0 42.667h85.333v21.333H46.514z"/></symbol><symbol viewBox="0 0 512 512" id="phone" xmlns="http://www.w3.org/2000/svg"><path d="M493.397 24.615l-104-23.997c-11.314-2.611-22.879 3.252-27.456 13.931l-48 111.997a24 24 0 0 0 6.862 28.029l60.617 49.596c-35.973 76.675-98.938 140.508-177.249 177.248l-49.596-60.616a24 24 0 0 0-28.029-6.862l-111.997 48C3.873 366.516-1.994 378.08.618 389.397l23.997 104C27.109 504.204 36.748 512 48 512c256.087 0 464-207.532 464-464 0-11.176-7.714-20.873-18.603-23.385z"/></symbol><symbol viewBox="0 0 363.868 363.868" id="progress-report" xmlns="http://www.w3.org/2000/svg"><path d="M92.723 274.945c-3.178 3.178-5.747 9.388-5.747 13.875v58.444h33.929v-92.373c0-4.487-2.569-5.56-5.747-2.382l-22.435 22.436zm149.029-55.372c-3.17 3.178-5.747 9.389-5.747 13.884v113.816h33.929V199.487c0-4.487-2.569-5.552-5.747-2.374l-22.435 22.46zm49.666-49.739c-3.178 3.17-5.755 9.38-5.755 13.867v163.563h31.547V152.212c0-4.487-2.577-5.56-5.755-2.382l-20.037 20.004zm-98.34 98.405s-1.512 1.52-3.381 3.39c-1.861 1.87-3.373 7.031-3.373 11.518v64.118h33.929v-98.047c0-4.487-2.577-5.56-5.755-2.382l-21.42 21.403zm-50.673-17.241c-3.178-3.17-5.755-2.105-5.755 2.382v93.885h33.929v-60.03c0-4.487-2.439-10.559-5.454-13.558l-5.454-5.43-17.266-17.249zm-92.382 66.671l-10.957 10.974c-3.17 3.178-5.739 8.633-5.739 12.193v6.438h37.871V304.59c0-4.487-2.569-5.552-5.747-2.374l-15.428 15.453z"/><path d="M358.121 150.724c3.17 3.178 5.747 2.105 5.747-2.382V32.193c0-8.316-7.966-15.599-16.233-15.599H232.16c-4.487 0-5.56 2.577-2.382 5.755l41.074 41.106-16.753 16.68-77.701 77.774L135.3 116.82c-3.178-3.178-8.316-3.17-11.494 0L9.519 231.189c-12.697 12.705-12.689 33.295.008 45.991l.797.805c12.697 12.697 33.287 12.697 45.975-.008l73.247-73.287 41.098 41.057a8.144 8.144 0 0 0 11.502 0l135.479-135.503 40.496 40.48z"/></symbol><symbol viewBox="0 0 512 512" class="bosvg-inline--fa bofa-question-circle bofa-w-16 bofa-2x" id="question" xmlns="http://www.w3.org/2000/svg"><path d="M256 340c-15.464 0-28 12.536-28 28s12.536 28 28 28 28-12.536 28-28-12.536-28-28-28zm7.67-24h-16c-6.627 0-12-5.373-12-12v-.381c0-70.343 77.44-63.619 77.44-107.408 0-20.016-17.761-40.211-57.44-40.211-29.144 0-44.265 9.649-59.211 28.692-3.908 4.98-11.054 5.995-16.248 2.376l-13.134-9.15c-5.625-3.919-6.86-11.771-2.645-17.177C185.658 133.514 210.842 116 255.67 116c52.32 0 97.44 29.751 97.44 80.211 0 67.414-77.44 63.849-77.44 107.408V304c0 6.627-5.373 12-12 12zM256 40c118.621 0 216 96.075 216 216 0 119.291-96.61 216-216 216-119.244 0-216-96.562-216-216 0-119.203 96.602-216 216-216m0-32C119.043 8 8 119.083 8 256c0 136.997 111.043 248 248 248s248-111.003 248-248C504 119.083 392.957 8 256 8z"/></symbol><symbol viewBox="0 0 47.002 47.002" id="refresh-lock" xmlns="http://www.w3.org/2000/svg"><path d="M41.982 17.605a21.266 21.266 0 0 0-5.447-9.242C28.19.017 14.612.018 6.269 8.363A21.259 21.259 0 0 0 0 23.496c0 5.718 2.226 11.09 6.269 15.132a21.26 21.26 0 0 0 15.132 6.271v-5.033c-4.37 0-8.48-1.704-11.572-4.795a16.258 16.258 0 0 1-4.793-11.573c0-4.373 1.701-8.482 4.793-11.573 6.382-6.381 16.763-6.382 23.146 0a16.236 16.236 0 0 1 3.69 5.684h-4.772l7.555 12.594 7.555-12.594h-5.02v-.004z"/><path d="M26.562 17.588a5.172 5.172 0 0 0-5.161-5.165 5.17 5.17 0 0 0-5.16 5.165v3.718h-2.392v13.267h15.106V21.306h-2.393v-3.718zm-2.587 3.718h-5.15v-3.718a2.575 2.575 0 1 1 5.151 0l-.001 3.718z"/></symbol><symbol viewBox="0 0 512 512" id="router" xmlns="http://www.w3.org/2000/svg"><path d="M373.333 151.907c-5.888 0-10.667 4.779-10.667 10.667v149.333c0 5.888 4.779 10.667 10.667 10.667A10.657 10.657 0 0 0 384 311.907V162.573c0-5.888-4.779-10.666-10.667-10.666z"/><path d="M458.667 301.24H53.333C23.936 301.24 0 325.176 0 354.573v42.667c0 29.397 23.936 53.333 53.333 53.333h405.333c29.397 0 53.333-23.936 53.333-53.333v-42.667c.001-29.397-23.935-53.333-53.332-53.333zm-384 85.333c-5.888 0-10.667-4.779-10.667-10.667s4.779-10.667 10.667-10.667 10.667 4.779 10.667 10.667c-.001 5.889-4.779 10.667-10.667 10.667zm64 0c-5.888 0-10.667-4.779-10.667-10.667s4.779-10.667 10.667-10.667 10.667 4.779 10.667 10.667c-.001 5.889-4.779 10.667-10.667 10.667zm64 0c-5.888 0-10.667-4.779-10.667-10.667s4.779-10.667 10.667-10.667 10.667 4.779 10.667 10.667c-.001 5.889-4.779 10.667-10.667 10.667zm64 0c-5.888 0-10.667-4.779-10.667-10.667s4.779-10.667 10.667-10.667 10.667 4.779 10.667 10.667c-.001 5.889-4.779 10.667-10.667 10.667zm170.666 0H330.667c-5.888 0-10.667-4.779-10.667-10.667s4.779-10.667 10.667-10.667h106.667c5.888 0 10.667 4.779 10.667 10.667-.001 5.889-4.78 10.667-10.668 10.667zm-96-224c0-8.555 3.328-16.576 9.365-22.635 4.16-4.16 4.16-10.923 0-15.083s-10.923-4.16-15.083 0C325.547 134.925 320 148.323 320 162.573c0 14.251 5.547 27.648 15.616 37.717a10.716 10.716 0 0 0 7.552 3.115c2.731 0 5.461-1.024 7.531-3.115 4.16-4.16 4.16-10.923 0-15.083-6.038-6.058-9.366-14.079-9.366-22.634zm69.718-37.717c-4.16-4.16-10.923-4.16-15.083 0s-4.16 10.923 0 15.083c6.037 6.059 9.365 14.08 9.365 22.635 0 8.555-3.328 16.597-9.387 22.635-4.16 4.16-4.16 10.923 0 15.083a10.716 10.716 0 0 0 7.552 3.115c2.731 0 5.461-1.024 7.552-3.115 10.069-10.069 15.616-23.467 15.616-37.717.001-14.252-5.546-27.65-15.615-37.719z"/><path d="M320.512 109.795c4.16-4.16 4.16-10.923 0-15.083s-10.923-4.16-15.083 0c-37.419 37.44-37.419 98.325 0 135.765 2.091 2.069 4.821 3.115 7.552 3.115s5.461-1.045 7.531-3.115c4.16-4.16 4.16-10.923 0-15.083-29.099-29.119-29.099-76.479 0-105.599zm120.704-15.083c-4.16-4.16-10.923-4.16-15.083 0s-4.16 10.923 0 15.083c29.099 29.12 29.099 76.48 0 105.6-4.16 4.16-4.16 10.923 0 15.083 2.091 2.069 4.821 3.115 7.552 3.115s5.44-1.045 7.531-3.115c37.419-37.441 37.419-98.326 0-135.766z"/><path d="M290.347 79.629c4.16-4.16 4.16-10.923 0-15.083s-10.923-4.16-15.083 0c-54.059 54.059-54.059 142.037 0 196.096a10.716 10.716 0 0 0 7.552 3.115c2.731 0 5.461-1.045 7.531-3.115 4.16-4.16 4.16-10.923 0-15.083-45.76-45.738-45.76-120.17 0-165.93zm181.034-15.082c-4.16-4.16-10.923-4.16-15.083 0s-4.16 10.923 0 15.083c45.76 45.739 45.76 120.171 0 165.931-4.16 4.16-4.16 10.923 0 15.083a10.716 10.716 0 0 0 7.552 3.115c2.731 0 5.461-1.045 7.531-3.115 54.059-54.06 54.059-142.039 0-196.097z"/></symbol><symbol viewBox="0 0 512 512" id="share" xmlns="http://www.w3.org/2000/svg"><path d="M503.691 189.836L327.687 37.851C312.281 24.546 288 35.347 288 56.015v80.053C127.371 137.907 0 170.1 0 322.326c0 61.441 39.581 122.309 83.333 154.132 13.653 9.931 33.111-2.533 28.077-18.631C66.066 312.814 132.917 274.316 288 272.085V360c0 20.7 24.3 31.453 39.687 18.164l176.004-152c11.071-9.562 11.086-26.753 0-36.328z"/></symbol><symbol viewBox="0 0 512 512" id="sign-out-alt" xmlns="http://www.w3.org/2000/svg"><path d="M497 273L329 441c-15 15-41 4.5-41-17v-96H152c-13.3 0-24-10.7-24-24v-96c0-13.3 10.7-24 24-24h136V88c0-21.4 25.9-32 41-17l168 168c9.3 9.4 9.3 24.6 0 34zM192 436v-40c0-6.6-5.4-12-12-12H96c-17.7 0-32-14.3-32-32V160c0-17.7 14.3-32 32-32h84c6.6 0 12-5.4 12-12V76c0-6.6-5.4-12-12-12H96c-53 0-96 43-96 96v192c0 53 43 96 96 96h84c6.6 0 12-5.4 12-12z"/></symbol><symbol viewBox="0 0 512 512" id="sim" xmlns="http://www.w3.org/2000/svg"><path d="M444.875 109.792L338.167 3.125c-2-2-4.708-3.125-7.542-3.125H106.667C83.135 0 64 19.135 64 42.667v426.667C64 492.865 83.135 512 106.667 512h298.667C428.865 512 448 492.865 448 469.333v-352c0-2.833-1.125-5.541-3.125-7.541zm-18.208 359.541c0 11.76-9.573 21.333-21.333 21.333H106.667c-11.76 0-21.333-9.573-21.333-21.333V42.667c0-11.76 9.573-21.333 21.333-21.333h219.542L426.667 121.75v347.583z"/><path d="M128 224v192c0 17.646 14.354 32 32 32h192c17.646 0 32-14.354 32-32V224c0-17.646-14.354-32-32-32H160c-17.646 0-32 14.354-32 32zm74.667 202.667H160c-5.885 0-10.667-4.781-10.667-10.667v-42.667h53.333v53.334zm85.333 0h-64v-53.333h64v53.333zM362.667 416c0 5.885-4.781 10.667-10.667 10.667h-42.667v-64A10.66 10.66 0 0 0 298.666 352H149.333v-64h213.333v128zm-53.334-202.667H352c5.885 0 10.667 4.781 10.667 10.667v42.667h-53.333v-53.334zm-85.333 0h64v53.333h-64v-53.333zm-21.333 53.334h-53.333V224c0-5.885 4.781-10.667 10.667-10.667h42.667v53.334z"/></symbol><symbol viewBox="0 0 78.666 78.666" id="speech-bubble" xmlns="http://www.w3.org/2000/svg"><path d="M9.49 73.833c-1.494 0-2.943-.24-4.31-.713l-3.113-1.077 2.392-2.265c3.166-2.998 3.965-6.456 4.017-9.046C3.004 54.665 0 47.096 0 39.333c-.001-19.023 17.644-34.5 39.332-34.5s39.334 15.477 39.334 34.5c0 19.022-17.646 34.498-39.334 34.498-6.457 0-12.827-1.399-18.504-4.057-2.139 1.515-6.46 4.059-11.338 4.059zm10.869-8.755l1.148.581c5.397 2.729 11.561 4.173 17.824 4.173 19.483 0 35.334-13.682 35.334-30.498 0-16.818-15.851-30.5-35.334-30.5S3.998 22.516 3.998 39.333c0 6.989 2.814 13.822 7.925 19.239l.52.551.024.757c.088 2.719-.4 6.406-2.817 9.951 4.632-.074 8.89-3.298 9.704-3.949l1.005-.804z"/><path d="M20.254 48.769c-1.467 0-2.658-.115-3.578-.346-.918-.229-1.553-.465-1.902-.705-.088-.088-.121-.289-.1-.607.021-.315.071-.645.148-.983.076-.338.175-.642.295-.901.12-.262.234-.384.345-.361.569.197 1.187.389 1.854.574s1.515.278 2.543.278c1.051 0 1.941-.151 2.676-.459.732-.307 1.1-.854 1.1-1.641 0-.681-.242-1.232-.723-1.658s-1.346-.881-2.593-1.36a18.515 18.515 0 0 1-1.92-.872 7.313 7.313 0 0 1-1.592-1.116 4.61 4.61 0 0 1-1.083-1.525c-.263-.59-.395-1.291-.395-2.101 0-.656.127-1.28.378-1.871s.64-1.1 1.165-1.526c.525-.426 1.198-.766 2.019-1.017.821-.252 1.8-.378 2.938-.378.743 0 1.362.017 1.854.049.492.033.896.077 1.215.132.316.055.574.115.771.181.197.066.383.12.558.164.153.065.23.257.23.574s-.045.656-.132 1.018c-.087.36-.208.678-.36.951-.154.274-.307.389-.46.345a19.53 19.53 0 0 0-1.526-.36 9.405 9.405 0 0 0-1.887-.197c-1.248 0-2.106.176-2.576.525-.471.35-.706.82-.706 1.411 0 .635.263 1.144.788 1.526.525.382 1.346.771 2.461 1.165 1.772.7 3.08 1.504 3.922 2.412.842.908 1.264 2.051 1.264 3.43 0 1.029-.197 1.883-.59 2.562a4.43 4.43 0 0 1-1.576 1.606c-.656.396-1.406.674-2.248.838-.843.161-1.702.243-2.577.243zm23.663-.164c-.459 0-.76-.076-.901-.23-.144-.152-.213-.447-.213-.887V36.001a654.138 654.138 0 0 0-2.021 3.298c-.472.778-.813 1.347-1.033 1.708-.219.359-.351.574-.396.639-.043.066-.063.111-.063.133a8.016 8.016 0 0 1-.41.64c-.078.101-.237.147-.477.147h-.525c-.284 0-.471-.049-.558-.147-.087-.099-.219-.312-.394-.64l-3.348-5.71v11.619c0 .285-.049.51-.148.674-.098.164-.355.246-.771.246h-1.377c-.307 0-.574-.049-.805-.148-.229-.098-.345-.42-.345-.969V31.736c0-.438.082-.728.246-.87.164-.142.399-.213.706-.213h1.641c.24 0 .443.032.607.098s.333.23.509.492l4.364 6.958 4.365-6.892c.132-.241.289-.41.478-.509.187-.099.365-.147.541-.147h1.806c.416 0 .655.087.723.262.066.176.098.46.098.854v15.883c0 .328-.043.57-.131.724s-.34.229-.754.229h-1.414zm10.931.164c-1.468 0-2.658-.115-3.578-.346-.918-.229-1.554-.465-1.902-.705-.088-.088-.121-.289-.1-.607.021-.315.069-.645.147-.983.076-.338.174-.642.295-.901.119-.263.233-.384.345-.361.569.197 1.188.389 1.854.574.666.186 1.514.278 2.543.278 1.051 0 1.94-.151 2.676-.459.731-.307 1.101-.854 1.101-1.641 0-.681-.242-1.232-.724-1.658s-1.346-.881-2.594-1.36a18.612 18.612 0 0 1-1.92-.872 7.345 7.345 0 0 1-1.593-1.116 4.622 4.622 0 0 1-1.082-1.525c-.264-.591-.395-1.291-.395-2.101 0-.656.127-1.28.377-1.871.252-.591.641-1.1 1.166-1.526.525-.426 1.197-.766 2.018-1.017.822-.252 1.802-.378 2.938-.378.744 0 1.363.017 1.854.049.492.033.896.077 1.216.132.315.055.573.115.771.181.196.065.383.12.559.164.152.065.229.257.229.574s-.045.656-.133 1.018c-.086.36-.207.678-.358.951-.154.274-.308.389-.461.345a19.598 19.598 0 0 0-1.525-.36 9.412 9.412 0 0 0-1.887-.197c-1.248 0-2.107.176-2.576.525-.471.35-.707.82-.707 1.411 0 .635.264 1.144.789 1.526.524.382 1.346.771 2.461 1.165 1.771.7 3.08 1.504 3.922 2.412.842.908 1.264 2.051 1.264 3.43 0 1.029-.197 1.883-.59 2.562a4.43 4.43 0 0 1-1.576 1.606c-.656.396-1.406.674-2.248.838-.845.161-1.701.243-2.576.243z"/></symbol><symbol viewBox="0 0 448 512" class="bvsvg-inline--fa bvfa-square bvfa-w-14 bvfa-2x" id="square" xmlns="http://www.w3.org/2000/svg"><path d="M400 32H48C21.5 32 0 53.5 0 80v352c0 26.5 21.5 48 48 48h352c26.5 0 48-21.5 48-48V80c0-26.5-21.5-48-48-48zm16 400c0 8.8-7.2 16-16 16H48c-8.8 0-16-7.2-16-16V80c0-8.8 7.2-16 16-16h352c8.8 0 16 7.2 16 16v352z"/></symbol><symbol viewBox="0 0 453.001 453.001" id="television" xmlns="http://www.w3.org/2000/svg"><path d="M420.135 110.203H280.091l49.728-81.594c4.312-7.074 2.072-16.304-5.002-20.615-7.073-4.313-16.304-2.072-20.615 5.002l-59.243 97.207h-36.916L148.8 12.996c-4.311-7.072-13.541-9.312-20.615-5.002-7.074 4.312-9.314 13.541-5.002 20.615l49.728 81.594H32.865C14.743 110.203 0 124.946 0 143.067v271.271c0 18.121 14.743 32.864 32.865 32.864h387.271c18.122 0 32.865-14.743 32.865-32.864V143.067c-.001-18.121-14.744-32.864-32.866-32.864zm2.866 304.135a2.87 2.87 0 0 1-2.866 2.864H32.865A2.868 2.868 0 0 1 30 414.338V143.067a2.868 2.868 0 0 1 2.865-2.864h387.271a2.868 2.868 0 0 1 2.865 2.864v271.271z"/><path d="M299.812 164.629H71.188c-9.866 0-17.865 7.999-17.865 17.865v192.418c0 9.866 7.998 17.865 17.865 17.865h228.623c9.866 0 17.865-7.999 17.865-17.865V182.494c0-9.867-7.998-17.865-17.864-17.865zm-12.135 198.147H83.324V194.629h204.353v168.147zm83.115-174.573c-17.093 0-31 13.906-31 31s13.907 31 31 31 31-13.906 31-31-13.907-31-31-31zm0 119c-17.093 0-31 13.906-31 31s13.907 31 31 31 31-13.906 31-31-13.907-31-31-31z"/></symbol><symbol viewBox="0 0 490.24 490.24" id="transaction" xmlns="http://www.w3.org/2000/svg"><path d="M259.367 182.89v160.498h-17.408c-10.19 0-17.969 4.075-21.339 11.181-3.371 7.106-1.606 15.708 4.84 23.601l57.354 70.21c5.78 7.073 13.995 11.131 22.54 11.131 8.544 0 16.76-4.057 22.541-11.132l57.353-70.209c6.447-7.894 8.211-16.495 4.84-23.601-3.371-7.105-11.148-11.181-21.338-11.181h-17.409V182.892c0-11.631-9.462-21.094-21.093-21.094H280.46c-11.631 0-21.093 9.462-21.093 21.092zm-18.063 181.498h28.563c5.799 0 10.5-4.701 10.5-10.5V182.89c0-.051.042-.092.093-.092h49.787c.052 0 .093.041.093.094v170.996c0 5.799 4.701 10.5 10.5 10.5l28.67-.01-57.879 70.714c-1.801 2.204-4.031 3.418-6.278 3.418s-4.477-1.214-6.277-3.417l-57.772-70.705z"/><path d="M121.49 146.853h17.409V307.35c0 11.631 9.462 21.093 21.093 21.093h49.787c11.631 0 21.093-9.462 21.093-21.092V146.853h17.408c10.19 0 17.969-4.075 21.339-11.181 3.371-7.107 1.606-15.708-4.84-23.601l-57.354-70.21c-5.78-7.073-13.995-11.131-22.54-11.131-8.544 0-16.76 4.057-22.541 11.132l-57.352 70.209c-6.447 7.894-8.212 16.495-4.841 23.602 3.372 7.104 11.149 11.18 21.339 11.18zm-.639-21l57.758-70.704c1.801-2.204 4.031-3.418 6.278-3.418s4.477 1.214 6.277 3.417l57.766 70.705h-28.556c-5.799 0-10.5 4.701-10.5 10.5v170.998a.093.093 0 0 1-.093.092h-49.787a.092.092 0 0 1-.093-.093V136.353c0-5.799-4.701-10.5-10.5-10.5h-28.55z"/><path d="M418.049 0H72.191c-5.799 0-10.5 4.701-10.5 10.5v469.24c0 5.799 4.701 10.5 10.5 10.5h345.858c5.799 0 10.5-4.701 10.5-10.5V10.5c0-5.799-4.701-10.5-10.5-10.5zm-10.5 469.24H82.691V21h324.858v448.24z"/></symbol><symbol id="transfer-money" viewBox="0 0 64 64" xmlns="http://www.w3.org/2000/svg"><style>.st0,.st1{fill:none;stroke:#000;stroke-linecap:round;stroke-linejoin:round;stroke-miterlimit:10}.st1{stroke-width:2}.st2,.st3{fill:none;stroke:#000;stroke-miterlimit:10}.st3,.st4{stroke-width:2}.st4,.st5{fill:none;stroke:#000;stroke-linecap:round;stroke-linejoin:round}</style><path d="M38.562 21.439l-3.535-3.535a1.5 1.5 0 0 0-2.561 1.06c0 .4.156.778.439 1.062l.975.974h-4.441a.5.5 0 0 0 0 1h5.648a.5.5 0 0 0 .354-.854l-1.828-1.828a.497.497 0 0 1 0-.707.5.5 0 0 1 .707 0l3.535 3.535a.5.5 0 0 1 0 .707l-3.535 3.535a.5.5 0 0 1-.707-.707l1.828-1.828a.499.499 0 0 0-.354-.853h-5.648a.5.5 0 0 0 0 1h4.441l-.975.975c-.284.283-.44.661-.439 1.062a1.497 1.497 0 0 0 1.5 1.498c.384 0 .769-.146 1.061-.438l3.535-3.535a1.505 1.505 0 0 0 0-2.123zm-11.063-.421a.5.5 0 0 0-.5.5v2a.5.5 0 0 0 1 0v-2a.5.5 0 0 0-.5-.5zm-2 3a.5.5 0 0 0 .5-.5v-2a.5.5 0 0 0-1 0v2a.5.5 0 0 0 .5.5zM15 27.5c3.584 0 6.5-2.916 6.5-6.5s-2.916-6.5-6.5-6.5-6.5 2.916-6.5 6.5 2.916 6.5 6.5 6.5zm0-11c2.481 0 4.5 2.019 4.5 4.5s-2.019 4.5-4.5 4.5-4.5-2.019-4.5-4.5 2.019-4.5 4.5-4.5zm6 13H9c-2.757 0-5 2.243-5 5v14a1 1 0 0 0 1 1h20a1 1 0 0 0 1-1v-14c0-2.757-2.243-5-5-5zm3 18h-2v-11a.5.5 0 0 0-1 0v11H9v-11a.5.5 0 0 0-1 0v11H6v-13c0-1.654 1.346-3 3-3h12c1.654 0 3 1.346 3 3v13zm25-20c3.584 0 6.5-2.916 6.5-6.5s-2.916-6.5-6.5-6.5-6.5 2.916-6.5 6.5 2.916 6.5 6.5 6.5zm0-11c2.481 0 4.5 2.019 4.5 4.5s-2.019 4.5-4.5 4.5-4.5-2.019-4.5-4.5 2.019-4.5 4.5-4.5zm6 13H43c-2.757 0-5 2.243-5 5v14a1 1 0 0 0 1 1h20a1 1 0 0 0 1-1v-14c0-2.757-2.243-5-5-5zm3 18h-2v-11a.5.5 0 0 0-1 0v11H43v-11a.5.5 0 0 0-1 0v11h-2v-13c0-1.654 1.346-3 3-3h12c1.654 0 3 1.346 3 3v13z"/></symbol><symbol viewBox="0 0 384 512" class="bzsvg-inline--fa bzfa-unlock bzfa-w-12 bzfa-3x" id="unlock" xmlns="http://www.w3.org/2000/svg"><path d="M336 256H96v-96c0-70.6 25.4-128 96-128s96 57.4 96 128v20c0 6.6 5.4 12 12 12h8c6.6 0 12-5.4 12-12v-18.5C320 73.1 280.9.3 192.5 0 104-.3 64 71.6 64 160v96H48c-26.5 0-48 21.5-48 48v160c0 26.5 21.5 48 48 48h288c26.5 0 48-21.5 48-48V304c0-26.5-21.5-48-48-48zm16 208c0 8.8-7.2 16-16 16H48c-8.8 0-16-7.2-16-16V304c0-8.8 7.2-16 16-16h288c8.8 0 16 7.2 16 16v160z"/></symbol><symbol viewBox="0 0 512 512" id="user" xmlns="http://www.w3.org/2000/svg"><path d="M256 0c88.366 0 160 71.634 160 160s-71.634 160-160 160S96 248.366 96 160 167.634 0 256 0zm183.283 333.821l-71.313-17.828c-74.923 53.89-165.738 41.864-223.94 0l-71.313 17.828C29.981 344.505 0 382.903 0 426.955V464c0 26.51 21.49 48 48 48h416c26.51 0 48-21.49 48-48v-37.045c0-44.052-29.981-82.45-72.717-93.134z"/></symbol><symbol viewBox="0 0 55 55" id="user-02" xmlns="http://www.w3.org/2000/svg"><path d="M55 27.5C55 12.337 42.663 0 27.5 0S0 12.337 0 27.5c0 8.009 3.444 15.228 8.926 20.258l-.026.023.892.752c.058.049.121.089.179.137.474.393.965.766 1.465 1.127.162.117.324.234.489.348.534.368 1.082.717 1.642 1.048.122.072.245.142.368.212a27.44 27.44 0 0 0 1.88.98l.142.064a27.252 27.252 0 0 0 6.651 2.105l.184.033c.724.125 1.456.225 2.197.292.09.008.18.013.271.021.738.061 1.484.1 2.24.1.749 0 1.488-.039 2.222-.098l.279-.021a27.808 27.808 0 0 0 2.178-.287l.187-.034a27.251 27.251 0 0 0 6.557-2.055c.076-.035.153-.068.229-.104a27.639 27.639 0 0 0 2.25-1.189 27.514 27.514 0 0 0 1.581-1c.185-.126.366-.259.549-.391.439-.316.87-.642 1.289-.983.093-.075.193-.14.284-.217l.915-.764-.027-.023C51.523 42.802 55 35.55 55 27.5zm-53 0C2 13.439 13.439 2 27.5 2S53 13.439 53 27.5c0 7.577-3.325 14.389-8.589 19.063a7.494 7.494 0 0 0-.893-.537l-8.467-4.233a2.217 2.217 0 0 1-1.232-1.993v-2.957c.196-.242.403-.516.617-.817a20.378 20.378 0 0 0 2.616-5.123 3.63 3.63 0 0 0 2.085-3.289v-3.545c0-.867-.318-1.708-.887-2.369v-4.667c.052-.519.236-3.448-1.883-5.864C34.524 9.065 31.541 8 27.5 8s-7.024 1.065-8.867 3.168c-2.119 2.416-1.935 5.345-1.883 5.864v4.667a3.644 3.644 0 0 0-.887 2.369v3.545c0 1.101.494 2.128 1.34 2.821.81 3.173 2.477 5.575 3.093 6.389v2.894a2.23 2.23 0 0 1-1.162 1.958l-7.907 4.313a7.227 7.227 0 0 0-.752.476C5.276 41.792 2 35.022 2 27.5zm40.459 20.632c-.35.254-.706.5-1.067.735-.166.108-.331.216-.5.321-.472.292-.952.57-1.442.83-.108.057-.217.111-.326.167a25.481 25.481 0 0 1-3.488 1.476l-.127.043c-.627.208-1.262.393-1.904.552l-.006.001a25.59 25.59 0 0 1-1.964.402l-.054.01c-.621.101-1.247.174-1.875.229-.111.01-.222.017-.334.025-.621.047-1.245.077-1.872.077a25.43 25.43 0 0 1-1.895-.078c-.109-.008-.218-.015-.326-.025a25.862 25.862 0 0 1-1.89-.233l-.084-.015a25.405 25.405 0 0 1-3.89-.971l-.118-.04a25.86 25.86 0 0 1-1.862-.713l-.013-.006a26.094 26.094 0 0 1-1.705-.816c-.073-.038-.147-.074-.219-.113a25.7 25.7 0 0 1-1.939-1.155 25.417 25.417 0 0 1-1.338-.933l-.133-.104.096-.054 7.907-4.313a4.229 4.229 0 0 0 2.205-3.714l-.001-3.602-.23-.278c-.022-.025-2.184-2.655-3.001-6.216l-.091-.396-.341-.221a1.657 1.657 0 0 1-.769-1.392v-3.545c0-.465.197-.898.557-1.223l.33-.298v-5.57l-.009-.131c-.003-.024-.298-2.429 1.396-4.36C21.583 10.837 24.061 10 27.5 10c3.426 0 5.896.83 7.346 2.466 1.692 1.911 1.415 4.361 1.413 4.381l-.009 5.701.33.298c.359.324.557.758.557 1.223v3.545a1.67 1.67 0 0 1-1.181 1.575l-.497.153-.16.495a18.5 18.5 0 0 1-2.496 5.032c-.262.37-.517.698-.736.949l-.248.283V39.8c0 1.612.896 3.062 2.338 3.782l8.467 4.233.16.083c-.107.081-.217.156-.325.234z"/></symbol><symbol viewBox="0 0 512 512" id="user-circle" xmlns="http://www.w3.org/2000/svg"><path d="M256 8C119.033 8 8 119.033 8 256s111.033 248 248 248 248-111.033 248-248S392.967 8 256 8zm0 48c110.457 0 200 89.543 200 200 0 36.982-10.049 71.611-27.548 101.328-7.072-25.444-25.663-54.208-63.93-65.374C377.207 271.782 384 248.414 384 224c0-70.689-57.189-128-128-128-70.689 0-128 57.19-128 128 0 24.414 6.793 47.783 19.478 67.954-38.299 11.175-56.876 39.913-63.938 65.362C66.046 327.601 56 292.976 56 256c0-110.457 89.543-200 200-200zm80 168c0 44.183-35.817 80-80 80s-80-35.817-80-80 35.817-80 80-80 80 35.817 80 80zM128 409.669v-27.758c0-20.41 13.53-38.348 33.156-43.955l24.476-6.993C206.342 344.648 230.605 352 256 352s49.658-7.352 70.369-21.038l24.476 6.993C370.47 343.563 384 361.5 384 381.911v27.758C349.315 438.592 304.693 456 256 456s-93.315-17.408-128-46.331z"/></symbol><symbol viewBox="0 0 640 512" id="users" xmlns="http://www.w3.org/2000/svg"><path d="M320 64c57.99 0 105 47.01 105 105s-47.01 105-105 105-105-47.01-105-105S262.01 64 320 64zm113.463 217.366l-39.982-9.996c-49.168 35.365-108.766 27.473-146.961 0l-39.982 9.996C174.485 289.379 152 318.177 152 351.216V412c0 19.882 16.118 36 36 36h264c19.882 0 36-16.118 36-36v-60.784c0-33.039-22.485-61.837-54.537-69.85zM528 300c38.66 0 70-31.34 70-70s-31.34-70-70-70-70 31.34-70 70 31.34 70 70 70zm-416 0c38.66 0 70-31.34 70-70s-31.34-70-70-70-70 31.34-70 70 31.34 70 70 70zm24 112v-60.784c0-16.551 4.593-32.204 12.703-45.599-29.988 14.72-63.336 8.708-85.69-7.37l-26.655 6.664C14.99 310.252 0 329.452 0 351.477V392c0 13.255 10.745 24 24 24h112.169a52.417 52.417 0 0 1-.169-4zm467.642-107.09l-26.655-6.664c-27.925 20.086-60.89 19.233-85.786 7.218C499.369 318.893 504 334.601 504 351.216V412c0 1.347-.068 2.678-.169 4H616c13.255 0 24-10.745 24-24v-40.523c0-22.025-14.99-41.225-36.358-46.567z"/></symbol><symbol viewBox="0 0 469.341 469.341" id="wallet" xmlns="http://www.w3.org/2000/svg"><path d="M437.337 384.007H362.67c-47.052 0-85.333-38.281-85.333-85.333s38.281-85.333 85.333-85.333h74.667a10.66 10.66 0 0 0 10.667-10.667v-32c0-22.368-17.35-40.559-39.271-42.323l-61.26-107c-5.677-9.896-14.844-16.969-25.813-19.906-10.917-2.917-22.333-1.385-32.104 4.302L79.553 128.007H42.67c-23.531 0-42.667 19.135-42.667 42.667v256c0 23.531 19.135 42.667 42.667 42.667h362.667c23.531 0 42.667-19.135 42.667-42.667v-32a10.66 10.66 0 0 0-10.667-10.667zM360.702 87.411l23.242 40.596h-92.971l69.729-40.596zm-238.749 40.596L300.295 24.184c4.823-2.823 10.458-3.573 15.844-2.135 5.448 1.458 9.99 4.979 12.813 9.906l.022.039-164.91 96.013h-42.111z"/><path d="M437.337 234.674H362.67c-35.292 0-64 28.708-64 64s28.708 64 64 64h74.667c17.646 0 32-14.354 32-32v-64c0-17.646-14.354-32-32-32zm-74.667 85.333c-11.76 0-21.333-9.573-21.333-21.333 0-11.76 9.573-21.333 21.333-21.333 11.76 0 21.333 9.573 21.333 21.333.001 11.76-9.572 21.333-21.333 21.333z"/></symbol></svg>